<svg width="20" height="21" viewBox="0 0 20 21" fill="none" xmlns="http://www.w3.org/2000/svg">
<path d="M2.58 13.2772C2.38 13.2772 2.2 13.1972 2.04 13.0572C0.72 11.7372 0 9.99719 0 8.13719C0 6.27719 0.72 4.53719 2.04 3.21719C2.34 2.91719 2.8 2.91719 3.1 3.21719C3.4 3.51719 3.4 3.97719 3.1 4.27719C2.06 5.31719 1.5 6.67719 1.5 8.13719C1.5 9.59719 2.06 10.9572 3.1 11.9972C3.4 12.2972 3.4 12.7572 3.1 13.0572C2.96 13.1972 2.76 13.2772 2.58 13.2772Z" fill="white"/>
<path d="M12.28 20.4168C10.42 20.4168 8.67999 19.6968 7.35999 18.3768C7.05999 18.0768 7.05999 17.6168 7.35999 17.3168C7.65999 17.0168 8.11999 17.0168 8.41999 17.3168C9.45999 18.3568 10.82 18.9168 12.28 18.9168C13.74 18.9168 15.1 18.3568 16.14 17.3168C16.44 17.0168 16.9 17.0168 17.2 17.3168C17.5 17.6168 17.5 18.0768 17.2 18.3768C15.9 19.6968 14.14 20.4168 12.28 20.4168Z" fill="white"/>
<path d="M7.9 18.5975C7.7 18.5975 7.52 18.5175 7.36 18.3775L2.04 13.0575C1.74 12.7575 1.74 12.2975 2.04 11.9975C2.34 11.6975 2.8 11.6975 3.1 11.9975L8.42 17.3175C8.72 17.6175 8.72 18.0775 8.42 18.3775C8.28 18.5175 8.08 18.5975 7.9 18.5975Z" fill="white"/>
<path d="M6.16 11.4571C5.96 11.4571 5.78 11.3771 5.62001 11.2371C5.14 10.7571 4.88 10.1171 4.88 9.45715C4.88 8.79715 5.14 8.15715 5.62001 7.67715C5.92 7.37715 6.38001 7.37715 6.68001 7.67715C6.98001 7.97715 6.98001 8.43715 6.68001 8.73715C6.48001 8.93715 6.38 9.19715 6.38 9.45715C6.38 9.71715 6.48001 9.99715 6.68001 10.1771C6.98001 10.4771 6.98001 10.9371 6.68001 11.2371C6.54001 11.3971 6.34 11.4571 6.16 11.4571Z" fill="white"/>
<path d="M10.96 15.5367C10.28 15.5367 9.66 15.2767 9.18 14.7967C8.88 14.4967 8.88 14.0367 9.18 13.7367C9.48 13.4367 9.94 13.4367 10.24 13.7367C10.44 13.9367 10.7 14.0367 10.96 14.0367C11.24 14.0367 11.5 13.9367 11.68 13.7367C11.98 13.4367 12.44 13.4367 12.74 13.7367C13.04 14.0367 13.04 14.4967 12.74 14.7967C12.26 15.2767 11.64 15.5367 10.96 15.5367Z" fill="white"/>
<path d="M9.7 15.0171C9.5 15.0171 9.32 14.9371 9.16 14.7971L5.62 11.2371C5.32 10.9371 5.32 10.4771 5.62 10.1771C5.92 9.87715 6.38 9.87715 6.68 10.1771L10.22 13.7171C10.52 14.0171 10.52 14.4771 10.22 14.7771C10.08 14.9371 9.9 15.0171 9.7 15.0171Z" fill="white"/>
<path d="M7.48001 7.6168C7.28001 7.6168 7.10001 7.5368 6.94001 7.3968L2.92001 3.3768C2.62001 3.0768 2.62001 2.6168 2.92001 2.3168C3.22001 2.0168 3.68001 2.0168 3.98001 2.3168L8.00001 6.3368C8.30001 6.6368 8.30001 7.0968 8.00001 7.3968C7.86001 7.5568 7.68001 7.6168 7.48001 7.6168Z" fill="white"/>
<path d="M17.56 17.7169C17.36 17.7169 17.18 17.6369 17.02 17.4969L13.02 13.4569C12.72 13.1569 12.72 12.6969 13.02 12.3969C13.32 12.0969 13.78 12.0969 14.08 12.3969L18.1 16.4169C18.4 16.7169 18.4 17.1769 18.1 17.4769C17.96 17.6369 17.76 17.7169 17.56 17.7169Z" fill="white"/>
<path d="M2.58 4.4973C2.38 4.4973 2.2 4.4173 2.04 4.2773C1.74 3.9773 1.74 3.5173 2.04 3.2173L2.92 2.3373C3.22 2.0373 3.68 2.0373 3.98 2.3373C4.28 2.6373 4.28 3.0973 3.98 3.3973L3.1 4.2773C2.96 4.4173 2.76 4.4973 2.58 4.4973Z" fill="white"/>
<path d="M6.16 8.9573C5.96 8.9573 5.78 8.8773 5.62 8.7373C5.32 8.4373 5.32 7.9773 5.62 7.6773L6.96 6.3373C7.26 6.0373 7.72 6.0373 8.02 6.3373C8.32 6.6373 8.32 7.0973 8.02 7.3973L6.68 8.7373C6.54 8.8773 6.34 8.9573 6.16 8.9573Z" fill="white"/>
<path d="M12.22 15.0169C12.02 15.0169 11.84 14.9369 11.68 14.7969C11.38 14.4969 11.38 14.0369 11.68 13.7369L13.02 12.3969C13.32 12.0969 13.78 12.0969 14.08 12.3969C14.38 12.6969 14.38 13.1569 14.08 13.4569L12.74 14.7969C12.6 14.9369 12.4 15.0169 12.22 15.0169Z" fill="white"/>
<path d="M16.68 18.5969C16.48 18.5969 16.3 18.5169 16.14 18.3769C15.84 18.0769 15.84 17.6169 16.14 17.3169L17.02 16.4369C17.32 16.1369 17.78 16.1369 18.08 16.4369C18.38 16.7369 18.38 17.1969 18.08 17.4969L17.2 18.3769C17.06 18.5169 16.88 18.5969 16.68 18.5969Z" fill="white"/>
<path d="M19.24 10.337C18.82 10.337 18.48 9.99699 18.48 9.57699C18.48 5.35699 15.04 1.91699 10.82 1.91699C10.4 1.91699 10.06 1.57699 10.06 1.15699C10.06 0.736992 10.42 0.416992 10.84 0.416992C15.9 0.416992 20 4.51699 20 9.57699C20 9.99699 19.66 10.337 19.24 10.337Z" fill="white"/>
<path d="M15.88 10.3368C15.46 10.3368 15.12 9.99684 15.12 9.57684C15.12 7.21684 13.2 5.27684 10.82 5.27684C10.4 5.27684 10.06 4.93684 10.06 4.51684C10.06 4.09684 10.4 3.75684 10.82 3.75684C14.02 3.75684 16.62 6.35684 16.62 9.55684C16.64 9.99684 16.3 10.3368 15.88 10.3368Z" fill="white"/>
</svg>
