<svg width="20" height="21" viewBox="0 0 20 21" fill="none" xmlns="http://www.w3.org/2000/svg">
<path d="M19.36 3.39719H0.64C0.28 3.39719 0 3.11719 0 2.75719C0 2.39719 0.28 2.11719 0.64 2.11719H19.36C19.72 2.11719 20 2.39719 20 2.75719C20 3.11719 19.72 3.39719 19.36 3.39719Z" fill="white"/>
<path d="M19.36 18.7172C19 18.7172 18.72 18.4372 18.72 18.0772V2.75719C18.72 2.39719 19 2.11719 19.36 2.11719C19.72 2.11719 20 2.39719 20 2.75719V18.0772C20 18.4372 19.72 18.7172 19.36 18.7172Z" fill="white"/>
<path d="M0.64 18.7172C0.28 18.7172 0 18.4372 0 18.0772V2.75719C0 2.39719 0.28 2.11719 0.64 2.11719C1 2.11719 1.28 2.39719 1.28 2.75719V18.0772C1.28 18.4372 1 18.7172 0.64 18.7172Z" fill="white"/>
<path d="M19.36 18.7165H0.64C0.28 18.7165 0 18.4365 0 18.0765C0 17.7165 0.28 17.4365 0.64 17.4365H19.36C19.72 17.4365 20 17.7165 20 18.0765C20 18.4365 19.72 18.7165 19.36 18.7165Z" fill="white"/>
<path d="M10 12.7569C9.86 12.7569 9.74 12.7169 9.62 12.6369L0.259996 5.81695C-0.0200043 5.61695 -0.0800043 5.21695 0.119996 4.91695C0.319996 4.63695 0.719996 4.57695 1.02 4.77695L10 11.3369L18.98 4.79695C19.26 4.59695 19.66 4.65695 19.88 4.93695C20.08 5.21695 20.02 5.61695 19.74 5.83695L10.38 12.6369C10.26 12.7169 10.14 12.7569 10 12.7569Z" fill="white"/>
</svg>
