<svg width="168" height="49" viewBox="0 0 168 49" fill="none" xmlns="http://www.w3.org/2000/svg">
<path fill-rule="evenodd" clip-rule="evenodd" d="M68.3271 1.00195H69.8087L87.4828 48.4161H83.9486L72.0176 16.1455C70.2024 11.286 68.9763 7.62858 68.3542 5.1883L68.3271 1.00195Z" fill="white"/>
<path d="M68.3271 1.00195H69.8087L87.4828 48.4161H83.9486L72.0176 16.1455C70.2024 11.286 68.9763 7.62858 68.3542 5.1883L68.3271 1.00195Z" stroke="white" stroke-width="0.257562" stroke-miterlimit="42.5"/>
<path fill-rule="evenodd" clip-rule="evenodd" d="M94.8817 27.0947C95.1281 27.0947 95.3686 27.1217 95.597 27.1879C95.8194 27.266 96.0327 27.3682 96.201 27.5124C96.3693 27.6567 96.4986 27.837 96.6007 28.0504C96.6939 28.2728 96.745 28.5192 96.745 28.8167C96.745 29.2615 96.6428 29.5831 96.4054 29.8235C96.183 30.0699 95.8674 30.2232 95.4948 30.3193L97.2138 32.7145L96.2852 32.952L94.3107 30.0278H94.2837V32.8167L93.4753 32.9099V27.0947H94.8817ZM94.8997 29.8475C95.029 29.8475 95.1462 29.8205 95.2754 29.7694C95.4046 29.7183 95.5218 29.6492 95.615 29.556C95.7172 29.4719 95.7953 29.3607 95.8464 29.2314C95.9155 29.1022 95.9396 28.976 95.9396 28.8137C95.9396 28.6424 95.9125 28.4891 95.8614 28.3689C95.7923 28.2397 95.7172 28.1465 95.624 28.0714C95.5399 27.9933 95.4287 27.9271 95.2995 27.9001C95.1702 27.849 95.044 27.831 94.8997 27.831H94.2867V29.8445H94.8997V29.8475ZM98.4941 31.0496C98.4941 31.3892 98.5962 31.6627 98.7916 31.8671C98.9779 32.0895 99.2604 32.1916 99.6511 32.1916C100.069 32.1916 100.366 32.0895 100.58 31.8851C100.802 31.6898 100.904 31.3982 100.904 31.0586V27.0947L101.713 26.9504V30.9505C101.695 31.1548 101.671 31.3502 101.635 31.5485C101.608 31.7438 101.541 31.9242 101.463 32.0955C101.385 32.2758 101.268 32.42 101.124 32.5463C100.979 32.6665 100.799 32.7686 100.58 32.8438C100.357 32.9129 100.093 32.955 99.7713 32.955C99.3806 32.955 99.056 32.9129 98.7916 32.8348C98.5181 32.7566 98.2987 32.6214 98.1454 32.4411C97.9741 32.2698 97.8569 32.0143 97.7878 31.7258C97.7277 31.4433 97.6856 31.0767 97.6856 30.6589V27.0947L98.4941 26.9504V31.0526V31.0496ZM105.451 28.3389C105.229 28.1015 105.034 27.9302 104.862 27.837C104.691 27.7528 104.523 27.7078 104.36 27.7078C104.096 27.7078 103.873 27.7769 103.705 27.9452C103.552 28.0985 103.459 28.3028 103.459 28.5853C103.459 28.7145 103.486 28.8167 103.552 28.9099C103.603 29.003 103.696 29.0812 103.783 29.1563C103.886 29.2344 104.021 29.2855 104.168 29.3516C104.303 29.4027 104.466 29.4719 104.646 29.532C104.841 29.6161 105.037 29.7033 105.208 29.7784C105.379 29.8716 105.532 29.9918 105.668 30.118C105.797 30.2382 105.89 30.3915 105.965 30.5778C106.043 30.7491 106.067 30.9535 106.067 31.1999C106.067 31.4644 106.025 31.6958 105.938 31.9061C105.845 32.1105 105.716 32.3058 105.547 32.4591C105.385 32.6124 105.208 32.7326 104.985 32.8257C104.781 32.9039 104.544 32.946 104.294 32.946C104.15 32.946 103.997 32.9279 103.852 32.9039C103.708 32.8708 103.564 32.8107 103.411 32.7506C103.281 32.6725 103.137 32.5793 102.993 32.4621C102.84 32.3329 102.695 32.1886 102.524 32.0113L103.137 31.5154C103.248 31.6958 103.393 31.855 103.588 31.9843C103.783 32.1285 103.979 32.1886 104.228 32.1886C104.372 32.1886 104.493 32.1616 104.619 32.1285C104.748 32.1015 104.865 32.0354 104.958 31.9572C105.052 31.8791 105.13 31.7859 105.181 31.6597C105.232 31.5245 105.259 31.3712 105.259 31.1909C105.259 31.0797 105.226 30.9775 105.139 30.8843C105.061 30.8002 104.967 30.7221 104.865 30.6529C104.736 30.5748 104.619 30.5087 104.499 30.4576C104.387 30.3885 104.267 30.3374 104.192 30.3043C104.006 30.2112 103.825 30.118 103.63 30.0158C103.459 29.9136 103.29 29.7784 103.143 29.6492C102.99 29.5199 102.87 29.3607 102.777 29.1803C102.692 29.009 102.647 28.8047 102.647 28.5673C102.647 28.3299 102.689 28.0985 102.768 27.9031C102.861 27.7078 102.963 27.5365 103.116 27.3922C103.278 27.263 103.456 27.1458 103.678 27.0676C103.901 26.9895 104.138 26.9474 104.393 26.9474C104.682 26.9474 104.964 27.0166 105.253 27.1608C105.541 27.3051 105.791 27.5094 106.01 27.7829L105.448 28.3359L105.451 28.3389ZM107.777 29.4568H110.578V27.0947L111.405 26.9504V32.8167L110.578 32.9099V30.2172H107.777V32.8167L106.96 32.9099V27.0947L107.777 26.9504V29.4568ZM113.295 32.8137L112.469 32.8828V27.0947L113.295 26.9504V32.8167V32.8137ZM117.529 26.8633L118.296 27.1969L116.132 29.8746L118.245 32.6364L117.409 32.952L115.194 29.8926H115.167V32.8167L114.359 32.952V27.0947L115.167 26.9504V29.8505H115.194L117.529 26.8663V26.8633ZM122.025 27.0947L122.197 27.837H119.795V29.4568H121.728V30.2142H119.795V32.0654H122.392L122.155 32.8167H118.978V27.0947H122.028H122.025ZM125.809 28.3389C125.587 28.1015 125.391 27.9302 125.22 27.837C125.034 27.7528 124.88 27.7078 124.709 27.7078C124.436 27.7078 124.216 27.7769 124.063 27.9452C123.892 28.0985 123.807 28.3028 123.807 28.5853C123.807 28.7145 123.841 28.8167 123.901 28.9099C123.952 29.003 124.03 29.0812 124.138 29.1563C124.24 29.2344 124.36 29.2855 124.514 29.3516C124.643 29.4027 124.802 29.4719 124.983 29.532C125.178 29.6161 125.373 29.7033 125.545 29.7784C125.725 29.8716 125.869 29.9918 126.004 30.118C126.134 30.2382 126.236 30.3915 126.302 30.5778C126.38 30.7491 126.422 30.9535 126.422 31.1999C126.422 31.4644 126.362 31.6958 126.278 31.9061C126.185 32.1105 126.055 32.3058 125.893 32.4591C125.74 32.6124 125.545 32.7326 125.34 32.8257C125.127 32.9039 124.889 32.946 124.643 32.946C124.49 32.946 124.336 32.9279 124.192 32.9039C124.048 32.8708 123.904 32.8107 123.756 32.7506C123.627 32.6725 123.483 32.5793 123.33 32.4621C123.185 32.3329 123.032 32.1886 122.87 32.0113L123.474 31.5154C123.585 31.6958 123.747 31.855 123.925 31.9843C124.12 32.1285 124.333 32.1886 124.565 32.1886C124.709 32.1886 124.838 32.1616 124.974 32.1285C125.103 32.1015 125.205 32.0354 125.298 31.9572C125.391 31.8791 125.469 31.7859 125.52 31.6597C125.572 31.5245 125.614 31.3712 125.614 31.1909C125.614 31.0797 125.572 30.9775 125.493 30.8843C125.415 30.8002 125.322 30.7221 125.205 30.6529C125.085 30.5748 124.974 30.5087 124.856 30.4576C124.727 30.3885 124.619 30.3374 124.541 30.3043C124.345 30.2112 124.165 30.118 123.979 30.0158C123.798 29.9136 123.63 29.7784 123.486 29.6492C123.342 29.5199 123.23 29.3607 123.137 29.1803C123.044 29.009 122.993 28.8047 122.993 28.5673C122.993 28.3299 123.044 28.0985 123.122 27.9031C123.206 27.7078 123.318 27.5365 123.48 27.3922C123.633 27.263 123.813 27.1458 124.024 27.0676C124.246 26.9895 124.493 26.9474 124.757 26.9474C125.022 26.9474 125.328 27.0166 125.617 27.1608C125.89 27.3051 126.146 27.5094 126.359 27.7829L125.815 28.3359L125.809 28.3389ZM128.108 29.4568H130.927V27.0947L131.735 26.9504V32.8167L130.927 32.9099V30.2172H128.108V32.8167L127.309 32.9099V27.0947L128.108 26.9504V29.4568ZM135.237 26.9474L136.634 30.9294H136.661L138.11 26.9474L138.918 27.0917L136.661 32.949H136.634L134.437 27.0917L135.237 26.9474ZM141.079 26.9474L143.982 32.7807L143.173 32.952L142.185 30.9835H139.901L138.939 32.952L138.173 32.7807L141.052 26.9474H141.079ZM140.243 30.2232H141.86L141.034 28.5853L140.24 30.2232H140.243ZM148.649 28.2968C148.529 28.2187 148.427 28.1525 148.309 28.0744C148.207 27.9963 148.087 27.9302 147.961 27.8791C147.841 27.828 147.696 27.7859 147.552 27.7589C147.417 27.7258 147.255 27.7078 147.074 27.7078C146.786 27.7078 146.512 27.7589 146.239 27.8791C145.974 27.9993 145.752 28.1676 145.557 28.3749C145.352 28.5883 145.19 28.8347 145.079 29.1082C144.959 29.3817 144.892 29.6792 144.892 30.0218C144.892 30.2683 144.962 30.5417 145.064 30.7882C145.157 31.0526 145.31 31.284 145.5 31.4944C145.68 31.6988 145.89 31.8701 146.14 32.0053C146.395 32.1345 146.66 32.1916 146.933 32.1916C147.207 32.1916 147.453 32.1586 147.717 32.0804C147.973 32.0023 148.195 31.8671 148.382 31.6867V30.3314H146.687L146.975 29.574H149.199V32.1075C149.097 32.2427 148.968 32.3629 148.799 32.4651C148.628 32.5583 148.442 32.6454 148.246 32.7296C148.042 32.7897 147.847 32.8588 147.624 32.8828C147.402 32.9339 147.182 32.952 146.96 32.952C146.584 32.952 146.218 32.8738 145.878 32.7145C145.539 32.5613 145.238 32.3389 144.968 32.0654C144.703 31.7919 144.481 31.4944 144.327 31.1458C144.174 30.7882 144.09 30.4125 144.09 30.0278C144.09 29.6011 144.174 29.2104 144.312 28.8438C144.475 28.4681 144.679 28.1435 144.944 27.855C145.199 27.5815 145.515 27.3592 145.881 27.1909C146.23 27.0466 146.624 26.9534 147.056 26.9534C147.456 26.9534 147.832 27.0226 148.198 27.1488C148.565 27.284 148.88 27.4824 149.127 27.7378L148.658 28.2998L148.649 28.2968ZM152.637 26.9474L155.534 32.7807L154.726 32.952L153.746 30.9835H151.456L150.494 32.952L149.737 32.7807L152.616 26.9474H152.643H152.637ZM151.802 30.2232H153.418L152.601 28.5853L151.802 30.2232ZM157.397 27.0947C157.797 27.0947 158.173 27.1638 158.539 27.3171C158.879 27.4794 159.18 27.6837 159.441 27.9482C159.687 28.2036 159.883 28.5012 160.03 28.8618C160.174 29.2014 160.252 29.562 160.252 29.9527C160.252 30.3434 160.174 30.704 160.03 31.0526C159.886 31.3922 159.69 31.6928 159.426 31.9482C159.18 32.2217 158.882 32.4441 158.53 32.5883C158.173 32.7416 157.797 32.8197 157.406 32.8197H155.949V27.0977H157.397V27.0947ZM157.37 32.0654C157.626 32.0654 157.872 32.0143 158.113 31.9121C158.359 31.81 158.581 31.6657 158.777 31.4764C158.972 31.2961 159.125 31.0767 159.246 30.8122C159.375 30.5658 159.426 30.2653 159.426 29.9497C159.426 29.6341 159.375 29.3516 159.246 29.0872C159.125 28.8317 158.972 28.6093 158.777 28.423C158.581 28.2427 158.359 28.0984 158.113 27.9963C157.875 27.8941 157.626 27.834 157.355 27.834H156.766V32.0624H157.37V32.0654ZM161.809 32.8137L160.992 32.8828V27.0947L161.809 26.9504V32.8167V32.8137ZM165.097 26.9474L168 32.7807L167.192 32.952L166.212 30.9835H163.922L162.96 32.952L162.203 32.7807L165.082 26.9474H165.1H165.097ZM164.261 30.2232H165.887L165.07 28.5853L164.261 30.2232Z" fill="white"/>
<path fill-rule="evenodd" clip-rule="evenodd" d="M96.7239 38.6621C96.7239 38.9446 96.6308 39.2 96.4595 39.4464C96.3062 39.6839 96.0688 39.9063 95.7953 40.1106L96.6729 41.1324L97.6105 40.0595L98.1214 40.5464L97.0906 41.6643L98.1304 42.8845L97.6105 43.3713L96.6578 42.2293C96.5556 42.3586 96.4354 42.4938 96.3182 42.638C96.216 42.7673 96.0868 42.8935 95.9426 43.0137C95.8133 43.1429 95.6691 43.2451 95.5158 43.3202C95.3535 43.3894 95.1762 43.4224 94.9869 43.4224C94.7555 43.4224 94.5601 43.3894 94.3648 43.3202C94.1695 43.2421 94.0162 43.1399 93.8719 42.9957C93.7277 42.8664 93.6255 42.6982 93.5474 42.5178C93.4632 42.3225 93.4272 42.1241 93.4272 41.8777C93.4272 41.7064 93.4542 41.5381 93.5113 41.3909C93.5804 41.2376 93.6556 41.0933 93.7758 40.9461C93.896 40.8018 94.0402 40.6486 94.2115 40.5013C94.3648 40.348 94.5601 40.1767 94.7825 39.9904C94.6623 39.8371 94.5451 39.7079 94.467 39.5817C94.3888 39.4615 94.3137 39.3443 94.2716 39.2481C94.2205 39.1459 94.1935 39.0437 94.1695 38.9506C94.1695 38.8484 94.1424 38.7552 94.1424 38.6621C94.1424 38.4998 94.1935 38.3375 94.2626 38.1842C94.3227 38.022 94.4159 37.8957 94.5361 37.7905C94.6653 37.6703 94.7916 37.5772 94.9538 37.5171C95.1251 37.4479 95.2934 37.4239 95.4737 37.4239C95.6541 37.4239 95.8133 37.4509 95.9606 37.5171C96.1139 37.5682 96.2341 37.6613 96.3603 37.7635C96.4625 37.8837 96.5556 38.0099 96.6248 38.1632C96.6849 38.3255 96.7269 38.4788 96.7269 38.6591L96.7239 38.6621ZM95.3776 39.5937C95.615 39.3984 95.7953 39.2271 95.8885 39.0978C95.9666 38.9776 96.0087 38.8514 96.0087 38.7222C96.0087 38.5509 95.9666 38.4066 95.8644 38.2864C95.7713 38.1572 95.642 38.0911 95.4557 38.0911C95.2694 38.0911 95.1492 38.1602 95.047 38.2864C94.9538 38.4066 94.9027 38.5599 94.9027 38.7222C94.9027 38.8845 94.9538 39.0468 95.056 39.2C95.1492 39.3623 95.2694 39.4885 95.3806 39.5937H95.3776ZM94.9508 42.6711C95.0951 42.6711 95.2243 42.6441 95.3265 42.5689C95.4467 42.5178 95.5489 42.4247 95.6511 42.3315C95.7622 42.2293 95.8464 42.1272 95.9396 42.0069C96.0177 41.8777 96.1109 41.7755 96.186 41.6673L95.2483 40.5344C95.1552 40.6275 95.053 40.7297 94.9238 40.8229C94.8036 40.916 94.7014 41.0182 94.6082 41.1204C94.5061 41.2226 94.4129 41.3428 94.3348 41.46C94.2656 41.5802 94.2416 41.7064 94.2416 41.8597C94.2416 42.0971 94.2927 42.2955 94.4279 42.4487C94.5391 42.593 94.7104 42.6711 94.9478 42.6711H94.9508ZM103.63 37.4269L106.533 43.2662L105.725 43.4194L104.745 41.442H102.455L101.493 43.4194L100.736 43.2662L103.615 37.4269H103.633H103.63ZM102.795 40.7027H104.42L103.603 39.0558L102.795 40.7027ZM109.626 38.8093C109.403 38.5629 109.208 38.4096 109.037 38.3135C108.865 38.2173 108.697 38.1692 108.526 38.1692C108.252 38.1692 108.048 38.2624 107.88 38.4066C107.708 38.5599 107.633 38.7823 107.633 39.0558C107.633 39.191 107.66 39.2932 107.711 39.3954C107.771 39.4735 107.864 39.5667 107.958 39.6328C108.06 39.7109 108.18 39.762 108.333 39.8281C108.478 39.8882 108.622 39.9393 108.802 40.0084C109.016 40.0866 109.193 40.1797 109.382 40.2549C109.553 40.348 109.707 40.4682 109.833 40.5794C109.953 40.7237 110.055 40.8679 110.121 41.0392C110.2 41.2105 110.242 41.4329 110.242 41.6613C110.242 41.9348 110.2 42.1722 110.097 42.3946C110.004 42.59 109.875 42.7883 109.713 42.9326C109.559 43.0949 109.364 43.2151 109.16 43.3082C108.946 43.3864 108.718 43.4194 108.478 43.4194C108.306 43.4194 108.153 43.4104 108.009 43.3864C107.864 43.3593 107.72 43.3082 107.573 43.2241C107.444 43.164 107.29 43.0708 107.146 42.9356C107.002 42.8154 106.849 42.6711 106.686 42.4998L107.29 42.0039C107.42 42.1752 107.564 42.3435 107.759 42.4728C107.94 42.608 108.15 42.6681 108.381 42.6681C108.526 42.6681 108.67 42.6591 108.79 42.617C108.919 42.5749 109.022 42.5148 109.115 42.4457C109.208 42.3676 109.286 42.2654 109.337 42.1302C109.406 42.0009 109.43 41.8477 109.43 41.6613C109.43 41.5592 109.388 41.457 109.31 41.3638C109.232 41.2707 109.139 41.1925 109.022 41.1174C108.91 41.0392 108.79 40.9882 108.673 40.922C108.553 40.8709 108.435 40.8199 108.348 40.7688C108.162 40.6906 107.982 40.5824 107.81 40.4803C107.615 40.3781 107.462 40.2759 107.299 40.1317C107.164 39.9964 107.044 39.8431 106.951 39.6718C106.858 39.4915 106.807 39.2962 106.807 39.0498C106.807 38.8033 106.849 38.5899 106.942 38.3856C107.026 38.1902 107.128 38.0189 107.29 37.8747C107.444 37.7304 107.63 37.6283 107.834 37.5501C108.057 37.472 108.303 37.4299 108.568 37.4299C108.832 37.4299 109.139 37.5081 109.427 37.6433C109.71 37.7725 109.956 37.9919 110.17 38.2654L109.626 38.8123V38.8093ZM113.782 38.8093C113.559 38.5629 113.364 38.4096 113.193 38.3135C113.022 38.2203 112.853 38.1692 112.682 38.1692C112.408 38.1692 112.204 38.2624 112.036 38.4066C111.865 38.5599 111.789 38.7823 111.789 39.0558C111.789 39.191 111.816 39.2932 111.868 39.3954C111.937 39.4735 112.021 39.5667 112.114 39.6328C112.216 39.7109 112.336 39.762 112.481 39.8281C112.634 39.8882 112.796 39.9393 112.958 40.0084C113.172 40.0866 113.349 40.1797 113.538 40.2549C113.71 40.348 113.863 40.4682 113.98 40.5794C114.109 40.7237 114.212 40.8679 114.278 41.0392C114.356 41.2105 114.398 41.4329 114.398 41.6613C114.398 41.9348 114.356 42.1722 114.254 42.3946C114.161 42.59 114.031 42.7883 113.878 42.9326C113.716 43.0949 113.52 43.2151 113.316 43.3082C113.103 43.3864 112.874 43.4194 112.634 43.4194C112.463 43.4194 112.309 43.4104 112.165 43.3864C112.021 43.3593 111.877 43.3082 111.747 43.2241C111.594 43.164 111.45 43.0708 111.306 42.9356C111.161 42.8154 111.008 42.6711 110.864 42.4998L111.453 42.0039C111.582 42.1752 111.726 42.3435 111.922 42.4728C112.102 42.608 112.312 42.6681 112.544 42.6681C112.688 42.6681 112.832 42.6591 112.952 42.617C113.082 42.5749 113.184 42.5148 113.277 42.4457C113.37 42.3676 113.448 42.2654 113.499 42.1302C113.568 42.0009 113.593 41.8477 113.593 41.6613C113.593 41.5592 113.55 41.457 113.472 41.3638C113.394 41.2707 113.301 41.1925 113.184 41.1174C113.073 41.0392 112.952 40.9882 112.835 40.922C112.706 40.8709 112.604 40.8199 112.511 40.7688C112.339 40.6906 112.144 40.5824 111.973 40.4803C111.777 40.3781 111.624 40.2759 111.48 40.1317C111.327 39.9964 111.206 39.8431 111.113 39.6718C111.02 39.4915 110.969 39.2962 110.969 39.0498C110.969 38.8033 111.011 38.5899 111.104 38.3856C111.182 38.1902 111.309 38.0189 111.453 37.8747C111.606 37.7304 111.792 37.6283 112.015 37.5501C112.219 37.472 112.457 37.4299 112.73 37.4299C113.019 37.4299 113.301 37.5081 113.59 37.6433C113.878 37.7725 114.127 37.9919 114.332 38.2654L113.788 38.8123L113.782 38.8093ZM120.961 40.4292C120.961 40.8469 120.883 41.2406 120.715 41.5892C120.571 41.9739 120.348 42.2804 120.075 42.5539C119.801 42.8184 119.486 43.0408 119.137 43.194C118.753 43.3473 118.362 43.4254 117.944 43.4254C117.526 43.4254 117.145 43.3473 116.778 43.194C116.411 43.0408 116.096 42.8184 115.825 42.5449C115.552 42.2804 115.357 41.9559 115.185 41.5892C115.041 41.2226 114.963 40.8319 114.963 40.4292C114.963 40.0265 115.041 39.6178 115.2 39.2511C115.354 38.8754 115.558 38.5599 115.84 38.3044C116.114 38.022 116.42 37.8176 116.778 37.6643C117.154 37.502 117.544 37.4269 117.944 37.4269C118.38 37.4269 118.771 37.505 119.146 37.6643C119.504 37.8176 119.81 38.04 120.084 38.3135C120.366 38.5779 120.571 38.8845 120.724 39.2691C120.886 39.6358 120.961 40.0114 120.961 40.4292ZM117.947 42.6711C118.236 42.6711 118.527 42.62 118.783 42.4998C119.047 42.3706 119.294 42.2173 119.489 42.0039C119.684 41.7996 119.837 41.5592 119.958 41.2887C120.078 41.0152 120.144 40.7267 120.144 40.4262C120.144 40.1256 120.075 39.8371 119.973 39.5637C119.853 39.2902 119.684 39.0528 119.504 38.8484C119.309 38.635 119.068 38.4818 118.798 38.3616C118.524 38.2323 118.254 38.1662 117.947 38.1662C117.665 38.1662 117.394 38.2353 117.13 38.3525C116.865 38.4637 116.637 38.626 116.439 38.8214C116.225 39.0437 116.072 39.2721 115.952 39.5366C115.84 39.8101 115.771 40.1076 115.771 40.4232C115.771 40.7207 115.84 41.0122 115.943 41.2857C116.072 41.5592 116.216 41.7966 116.42 42.0009C116.616 42.2143 116.856 42.3676 117.118 42.4968C117.373 42.617 117.662 42.6681 117.944 42.6681L117.947 42.6711ZM125.298 38.4577C125.154 38.3375 125.001 38.2774 124.838 38.2353C124.685 38.1933 124.514 38.1662 124.345 38.1662C124.048 38.1662 123.774 38.2353 123.528 38.3616C123.282 38.4818 123.059 38.6501 122.864 38.8484C122.668 39.0708 122.524 39.2932 122.422 39.5637C122.32 39.8371 122.26 40.1106 122.26 40.3811C122.26 40.6876 122.32 40.9701 122.422 41.2436C122.524 41.5321 122.668 41.7725 122.864 41.9769C123.044 42.1993 123.254 42.3525 123.504 42.4878C123.75 42.608 124.024 42.6681 124.297 42.6681C124.493 42.6681 124.688 42.6411 124.886 42.5659C125.082 42.5148 125.262 42.4217 125.43 42.3195L125.277 43.2151C125.106 43.2842 124.937 43.3353 124.79 43.3683C124.619 43.4104 124.466 43.4194 124.288 43.4194C123.904 43.4194 123.54 43.3413 123.206 43.188C122.849 43.0347 122.551 42.8124 122.305 42.5479C122.031 42.2744 121.827 41.9679 121.674 41.5832C121.511 41.2346 121.451 40.8409 121.451 40.4232C121.451 40.0475 121.529 39.6809 121.683 39.3142C121.827 38.9656 122.04 38.623 122.305 38.3585C122.551 38.076 122.843 37.8386 123.164 37.6673C123.48 37.496 123.804 37.4209 124.144 37.4209C124.315 37.4209 124.484 37.4389 124.637 37.463C124.808 37.49 124.961 37.5141 125.13 37.5652L125.301 38.4517L125.298 38.4577ZM127.161 43.2932L126.353 43.3713V37.5561L127.161 37.4269V43.2932ZM130.458 37.4269L133.355 43.2662L132.547 43.4194L131.567 41.442H129.277L128.306 43.4194L127.54 43.2662L130.437 37.4269H130.464H130.458ZM129.608 40.7027H131.224L130.416 39.0558L129.608 40.7027ZM136.342 37.5561V38.3135H135.014V43.2932L134.197 43.3954V38.3135H132.724L132.989 37.5561H136.345H136.342ZM140.048 37.5561L140.228 38.3135H137.836V39.9333H139.753V40.6756H137.836V42.5419H140.418L140.18 43.2932H137.013V37.5561H140.054H140.048ZM143.829 38.8093C143.606 38.5629 143.411 38.4096 143.24 38.3135C143.068 38.2203 142.9 38.1692 142.729 38.1692C142.455 38.1692 142.251 38.2624 142.089 38.4066C141.908 38.5599 141.833 38.7823 141.833 39.0558C141.833 39.191 141.866 39.2932 141.911 39.3954C141.971 39.4735 142.064 39.5667 142.158 39.6328C142.26 39.7109 142.38 39.762 142.533 39.8281C142.678 39.8882 142.831 39.9393 143.002 40.0084C143.216 40.0866 143.393 40.1797 143.582 40.2549C143.753 40.348 143.907 40.4682 144.033 40.5794C144.153 40.7237 144.255 40.8679 144.33 41.0392C144.4 41.2105 144.451 41.4329 144.451 41.6613C144.451 41.9348 144.4 42.1722 144.297 42.3946C144.204 42.59 144.075 42.7883 143.913 42.9326C143.759 43.0949 143.564 43.2151 143.36 43.3082C143.146 43.3864 142.918 43.4194 142.678 43.4194C142.506 43.4194 142.353 43.4104 142.209 43.3864C142.064 43.3593 141.92 43.3082 141.791 43.2241C141.647 43.164 141.493 43.0708 141.349 42.9356C141.205 42.8154 141.052 42.6711 140.907 42.4998L141.496 42.0039C141.626 42.1752 141.77 42.3435 141.965 42.4728C142.146 42.608 142.356 42.6681 142.587 42.6681C142.732 42.6681 142.876 42.6591 142.996 42.617C143.125 42.5749 143.228 42.5148 143.321 42.4457C143.414 42.3676 143.492 42.2654 143.543 42.1302C143.612 42.0009 143.636 41.8477 143.636 41.6613C143.636 41.5592 143.594 41.457 143.516 41.3638C143.438 41.2707 143.345 41.1925 143.228 41.1174C143.116 41.0392 142.996 40.9882 142.879 40.922C142.75 40.8709 142.648 40.8199 142.554 40.7688C142.383 40.6906 142.188 40.5824 142.016 40.4803C141.821 40.3781 141.668 40.2759 141.524 40.1317C141.37 39.9964 141.25 39.8431 141.157 39.6718C141.064 39.4915 141.028 39.2962 141.028 39.0498C141.028 38.8033 141.055 38.5899 141.148 38.3856C141.232 38.1902 141.352 38.0189 141.496 37.8747C141.65 37.7304 141.836 37.6283 142.058 37.5501C142.263 37.472 142.509 37.4299 142.774 37.4299C143.056 37.4299 143.345 37.5081 143.633 37.6433C143.916 37.7725 144.171 37.9919 144.376 38.2654L143.832 38.8123L143.829 38.8093Z" fill="white"/>
<path fill-rule="evenodd" clip-rule="evenodd" d="M4.29678 24.9029H13.3517C17.3547 24.9029 20.4561 24.0163 22.644 22.2252C24.8498 20.4431 25.9558 17.8074 25.9558 14.3394C25.9558 10.8713 24.8739 8.08839 22.7101 6.4445C20.5553 4.81564 17.0391 3.98018 12.1496 3.98018H4.29678V24.9029ZM4.29678 27.7579V48.4161H1V1.00195H12.2848C18.1601 1.00195 22.4967 2.08385 25.2976 4.25967C28.1166 6.42647 29.523 9.70823 29.523 14.0719C29.523 17.2424 28.6786 19.9292 27.0106 22.12C25.3247 24.3018 22.7852 25.8616 19.3712 26.8172L32.2308 48.4131H28.2879L16.0744 27.7549H4.29678V27.7579Z" fill="white"/>
<path d="M4.29678 24.9089H13.3517C17.3547 24.9089 20.4561 24.0223 22.644 22.2312C24.8498 20.4491 25.9558 17.8135 25.9558 14.3364C25.9558 10.8592 24.8739 8.08538 22.7101 6.4415C20.5553 4.81264 17.0391 3.97718 12.1496 3.97718H4.29678V24.9089ZM4.29678 27.7579V48.4161H1V1.00195H12.2848C18.1601 1.00195 22.4967 2.08385 25.2976 4.25967C28.1166 6.42647 29.523 9.70823 29.523 14.0719C29.523 17.2424 28.6786 19.9292 27.0106 22.12C25.3247 24.3018 22.7852 25.8616 19.3712 26.8172L32.2308 48.4131H28.2879L16.0744 27.7549H4.29678V27.7579Z" stroke="white" stroke-width="0.257562" stroke-miterlimit="42.5"/>
<path fill-rule="evenodd" clip-rule="evenodd" d="M66.3166 1.003H69.9109L52.1858 48.4172H49.2557L31.6087 1.003H35.1429L47.0588 33.2646C48.865 38.1512 50.0911 41.8086 50.7222 44.2459C51.164 42.626 52.0175 40.0926 53.2948 36.6906L66.3166 1V1.003Z" fill="white"/>
<path d="M66.3166 1.003H69.9109L52.1858 48.4172H49.2557L31.6087 1.003H35.1429L47.0588 33.2646C48.865 38.1512 50.0911 41.8086 50.7222 44.2459C51.164 42.626 52.0175 40.0926 53.2948 36.6906L66.3166 1V1.003Z" stroke="white" stroke-width="0.257562" stroke-miterlimit="42.5"/>
<path fill-rule="evenodd" clip-rule="evenodd" d="M167.312 35.9602H63.2182V33.9316H167.312V35.9602Z" fill="white"/>
<path d="M167.312 35.9602H63.2182V33.9316H167.312V35.9602Z" stroke="white" stroke-width="0.257562" stroke-miterlimit="42.5"/>
<path fill-rule="evenodd" clip-rule="evenodd" d="M68.3271 1.00195H69.8087L87.4828 48.4161H83.9486L72.0176 16.1455C70.2024 11.286 68.9763 7.62858 68.3542 5.1883L68.3271 1.00195Z" fill="white"/>
<path d="M68.3271 1.00195H69.8087L87.4828 48.4161H83.9486L72.0176 16.1455C70.2024 11.286 68.9763 7.62858 68.3542 5.1883L68.3271 1.00195Z" stroke="white" stroke-width="0.257562" stroke-miterlimit="42.5"/>
<path fill-rule="evenodd" clip-rule="evenodd" d="M94.8817 27.0947C95.1281 27.0947 95.3686 27.1217 95.597 27.1879C95.8194 27.266 96.0327 27.3682 96.201 27.5124C96.3693 27.6567 96.4986 27.837 96.6007 28.0504C96.6939 28.2728 96.745 28.5192 96.745 28.8167C96.745 29.2615 96.6428 29.5831 96.4054 29.8235C96.183 30.0699 95.8674 30.2232 95.4948 30.3193L97.2138 32.7145L96.2852 32.952L94.3107 30.0278H94.2837V32.8167L93.4753 32.9099V27.0947H94.8817ZM94.8997 29.8475C95.029 29.8475 95.1462 29.8205 95.2754 29.7694C95.4046 29.7183 95.5218 29.6492 95.615 29.556C95.7172 29.4719 95.7953 29.3607 95.8464 29.2314C95.9155 29.1022 95.9396 28.976 95.9396 28.8137C95.9396 28.6424 95.9125 28.4891 95.8614 28.3689C95.7923 28.2397 95.7172 28.1465 95.624 28.0714C95.5399 27.9933 95.4287 27.9271 95.2995 27.9001C95.1702 27.849 95.044 27.831 94.8997 27.831H94.2867V29.8445H94.8997V29.8475ZM98.4941 31.0496C98.4941 31.3892 98.5962 31.6627 98.7916 31.8671C98.9779 32.0895 99.2604 32.1916 99.6511 32.1916C100.069 32.1916 100.366 32.0895 100.58 31.8851C100.802 31.6898 100.904 31.3982 100.904 31.0586V27.0947L101.713 26.9504V30.9505C101.695 31.1548 101.671 31.3502 101.635 31.5485C101.608 31.7438 101.541 31.9242 101.463 32.0955C101.385 32.2758 101.268 32.42 101.124 32.5463C100.979 32.6665 100.799 32.7686 100.58 32.8438C100.357 32.9129 100.093 32.955 99.7713 32.955C99.3806 32.955 99.056 32.9129 98.7916 32.8348C98.5181 32.7566 98.2987 32.6214 98.1454 32.4411C97.9741 32.2698 97.8569 32.0143 97.7878 31.7258C97.7277 31.4433 97.6856 31.0767 97.6856 30.6589V27.0947L98.4941 26.9504V31.0526V31.0496ZM105.451 28.3389C105.229 28.1015 105.034 27.9302 104.862 27.837C104.691 27.7528 104.523 27.7078 104.36 27.7078C104.096 27.7078 103.873 27.7769 103.705 27.9452C103.552 28.0985 103.459 28.3028 103.459 28.5853C103.459 28.7145 103.486 28.8167 103.552 28.9099C103.603 29.003 103.696 29.0812 103.783 29.1563C103.886 29.2344 104.021 29.2855 104.168 29.3516C104.303 29.4027 104.466 29.4719 104.646 29.532C104.841 29.6161 105.037 29.7033 105.208 29.7784C105.379 29.8716 105.532 29.9918 105.668 30.118C105.797 30.2382 105.89 30.3915 105.965 30.5778C106.043 30.7491 106.067 30.9535 106.067 31.1999C106.067 31.4644 106.025 31.6958 105.938 31.9061C105.845 32.1105 105.716 32.3058 105.547 32.4591C105.385 32.6124 105.208 32.7326 104.985 32.8257C104.781 32.9039 104.544 32.946 104.294 32.946C104.15 32.946 103.997 32.9279 103.852 32.9039C103.708 32.8708 103.564 32.8107 103.411 32.7506C103.281 32.6725 103.137 32.5793 102.993 32.4621C102.84 32.3329 102.695 32.1886 102.524 32.0113L103.137 31.5154C103.248 31.6958 103.393 31.855 103.588 31.9843C103.783 32.1285 103.979 32.1886 104.228 32.1886C104.372 32.1886 104.493 32.1616 104.619 32.1285C104.748 32.1015 104.865 32.0354 104.958 31.9572C105.052 31.8791 105.13 31.7859 105.181 31.6597C105.232 31.5245 105.259 31.3712 105.259 31.1909C105.259 31.0797 105.226 30.9775 105.139 30.8843C105.061 30.8002 104.967 30.7221 104.865 30.6529C104.736 30.5748 104.619 30.5087 104.499 30.4576C104.387 30.3885 104.267 30.3374 104.192 30.3043C104.006 30.2112 103.825 30.118 103.63 30.0158C103.459 29.9136 103.29 29.7784 103.143 29.6492C102.99 29.5199 102.87 29.3607 102.777 29.1803C102.692 29.009 102.647 28.8047 102.647 28.5673C102.647 28.3299 102.689 28.0985 102.768 27.9031C102.861 27.7078 102.963 27.5365 103.116 27.3922C103.278 27.263 103.456 27.1458 103.678 27.0676C103.901 26.9895 104.138 26.9474 104.393 26.9474C104.682 26.9474 104.964 27.0166 105.253 27.1608C105.541 27.3051 105.791 27.5094 106.01 27.7829L105.448 28.3359L105.451 28.3389ZM107.777 29.4568H110.578V27.0947L111.405 26.9504V32.8167L110.578 32.9099V30.2172H107.777V32.8167L106.96 32.9099V27.0947L107.777 26.9504V29.4568ZM113.295 32.8137L112.469 32.8828V27.0947L113.295 26.9504V32.8167V32.8137ZM117.529 26.8633L118.296 27.1969L116.132 29.8746L118.245 32.6364L117.409 32.952L115.194 29.8926H115.167V32.8167L114.359 32.952V27.0947L115.167 26.9504V29.8505H115.194L117.529 26.8663V26.8633ZM122.025 27.0947L122.197 27.837H119.795V29.4568H121.728V30.2142H119.795V32.0654H122.392L122.155 32.8167H118.978V27.0947H122.028H122.025ZM125.809 28.3389C125.587 28.1015 125.391 27.9302 125.22 27.837C125.034 27.7528 124.88 27.7078 124.709 27.7078C124.436 27.7078 124.216 27.7769 124.063 27.9452C123.892 28.0985 123.807 28.3028 123.807 28.5853C123.807 28.7145 123.841 28.8167 123.901 28.9099C123.952 29.003 124.03 29.0812 124.138 29.1563C124.24 29.2344 124.36 29.2855 124.514 29.3516C124.643 29.4027 124.802 29.4719 124.983 29.532C125.178 29.6161 125.373 29.7033 125.545 29.7784C125.725 29.8716 125.869 29.9918 126.004 30.118C126.134 30.2382 126.236 30.3915 126.302 30.5778C126.38 30.7491 126.422 30.9535 126.422 31.1999C126.422 31.4644 126.362 31.6958 126.278 31.9061C126.185 32.1105 126.055 32.3058 125.893 32.4591C125.74 32.6124 125.545 32.7326 125.34 32.8257C125.127 32.9039 124.889 32.946 124.643 32.946C124.49 32.946 124.336 32.9279 124.192 32.9039C124.048 32.8708 123.904 32.8107 123.756 32.7506C123.627 32.6725 123.483 32.5793 123.33 32.4621C123.185 32.3329 123.032 32.1886 122.87 32.0113L123.474 31.5154C123.585 31.6958 123.747 31.855 123.925 31.9843C124.12 32.1285 124.333 32.1886 124.565 32.1886C124.709 32.1886 124.838 32.1616 124.974 32.1285C125.103 32.1015 125.205 32.0354 125.298 31.9572C125.391 31.8791 125.469 31.7859 125.52 31.6597C125.572 31.5245 125.614 31.3712 125.614 31.1909C125.614 31.0797 125.572 30.9775 125.493 30.8843C125.415 30.8002 125.322 30.7221 125.205 30.6529C125.085 30.5748 124.974 30.5087 124.856 30.4576C124.727 30.3885 124.619 30.3374 124.541 30.3043C124.345 30.2112 124.165 30.118 123.979 30.0158C123.798 29.9136 123.63 29.7784 123.486 29.6492C123.342 29.5199 123.23 29.3607 123.137 29.1803C123.044 29.009 122.993 28.8047 122.993 28.5673C122.993 28.3299 123.044 28.0985 123.122 27.9031C123.206 27.7078 123.318 27.5365 123.48 27.3922C123.633 27.263 123.813 27.1458 124.024 27.0676C124.246 26.9895 124.493 26.9474 124.757 26.9474C125.022 26.9474 125.328 27.0166 125.617 27.1608C125.89 27.3051 126.146 27.5094 126.359 27.7829L125.815 28.3359L125.809 28.3389ZM128.108 29.4568H130.927V27.0947L131.735 26.9504V32.8167L130.927 32.9099V30.2172H128.108V32.8167L127.309 32.9099V27.0947L128.108 26.9504V29.4568ZM135.237 26.9474L136.634 30.9294H136.661L138.11 26.9474L138.918 27.0917L136.661 32.949H136.634L134.437 27.0917L135.237 26.9474ZM141.079 26.9474L143.982 32.7807L143.173 32.952L142.185 30.9835H139.901L138.939 32.952L138.173 32.7807L141.052 26.9474H141.079ZM140.243 30.2232H141.86L141.034 28.5853L140.24 30.2232H140.243ZM148.649 28.2968C148.529 28.2187 148.427 28.1525 148.309 28.0744C148.207 27.9963 148.087 27.9302 147.961 27.8791C147.841 27.828 147.696 27.7859 147.552 27.7589C147.417 27.7258 147.255 27.7078 147.074 27.7078C146.786 27.7078 146.512 27.7589 146.239 27.8791C145.974 27.9993 145.752 28.1676 145.557 28.3749C145.352 28.5883 145.19 28.8347 145.079 29.1082C144.959 29.3817 144.892 29.6792 144.892 30.0218C144.892 30.2683 144.962 30.5417 145.064 30.7882C145.157 31.0526 145.31 31.284 145.5 31.4944C145.68 31.6988 145.89 31.8701 146.14 32.0053C146.395 32.1345 146.66 32.1916 146.933 32.1916C147.207 32.1916 147.453 32.1586 147.717 32.0804C147.973 32.0023 148.195 31.8671 148.382 31.6867V30.3314H146.687L146.975 29.574H149.199V32.1075C149.097 32.2427 148.968 32.3629 148.799 32.4651C148.628 32.5583 148.442 32.6454 148.246 32.7296C148.042 32.7897 147.847 32.8588 147.624 32.8828C147.402 32.9339 147.182 32.952 146.96 32.952C146.584 32.952 146.218 32.8738 145.878 32.7145C145.539 32.5613 145.238 32.3389 144.968 32.0654C144.703 31.7919 144.481 31.4944 144.327 31.1458C144.174 30.7882 144.09 30.4125 144.09 30.0278C144.09 29.6011 144.174 29.2104 144.312 28.8438C144.475 28.4681 144.679 28.1435 144.944 27.855C145.199 27.5815 145.515 27.3592 145.881 27.1909C146.23 27.0466 146.624 26.9534 147.056 26.9534C147.456 26.9534 147.832 27.0226 148.198 27.1488C148.565 27.284 148.88 27.4824 149.127 27.7378L148.658 28.2998L148.649 28.2968ZM152.637 26.9474L155.534 32.7807L154.726 32.952L153.746 30.9835H151.456L150.494 32.952L149.737 32.7807L152.616 26.9474H152.643H152.637ZM151.802 30.2232H153.418L152.601 28.5853L151.802 30.2232ZM157.397 27.0947C157.797 27.0947 158.173 27.1638 158.539 27.3171C158.879 27.4794 159.18 27.6837 159.441 27.9482C159.687 28.2036 159.883 28.5012 160.03 28.8618C160.174 29.2014 160.252 29.562 160.252 29.9527C160.252 30.3434 160.174 30.704 160.03 31.0526C159.886 31.3922 159.69 31.6928 159.426 31.9482C159.18 32.2217 158.882 32.4441 158.53 32.5883C158.173 32.7416 157.797 32.8197 157.406 32.8197H155.949V27.0977H157.397V27.0947ZM157.37 32.0654C157.626 32.0654 157.872 32.0143 158.113 31.9121C158.359 31.81 158.581 31.6657 158.777 31.4764C158.972 31.2961 159.125 31.0767 159.246 30.8122C159.375 30.5658 159.426 30.2653 159.426 29.9497C159.426 29.6341 159.375 29.3516 159.246 29.0872C159.125 28.8317 158.972 28.6093 158.777 28.423C158.581 28.2427 158.359 28.0984 158.113 27.9963C157.875 27.8941 157.626 27.834 157.355 27.834H156.766V32.0624H157.37V32.0654ZM161.809 32.8137L160.992 32.8828V27.0947L161.809 26.9504V32.8167V32.8137ZM165.097 26.9474L168 32.7807L167.192 32.952L166.212 30.9835H163.922L162.96 32.952L162.203 32.7807L165.082 26.9474H165.1H165.097ZM164.261 30.2232H165.887L165.07 28.5853L164.261 30.2232Z" fill="white"/>
<path fill-rule="evenodd" clip-rule="evenodd" d="M96.7239 38.6621C96.7239 38.9446 96.6308 39.2 96.4595 39.4464C96.3062 39.6839 96.0688 39.9063 95.7953 40.1106L96.6729 41.1324L97.6105 40.0595L98.1214 40.5464L97.0906 41.6643L98.1304 42.8845L97.6105 43.3713L96.6578 42.2293C96.5556 42.3586 96.4354 42.4938 96.3182 42.638C96.216 42.7673 96.0868 42.8935 95.9426 43.0137C95.8133 43.1429 95.6691 43.2451 95.5158 43.3202C95.3535 43.3894 95.1762 43.4224 94.9869 43.4224C94.7555 43.4224 94.5601 43.3894 94.3648 43.3202C94.1695 43.2421 94.0162 43.1399 93.8719 42.9957C93.7277 42.8664 93.6255 42.6982 93.5474 42.5178C93.4632 42.3225 93.4272 42.1241 93.4272 41.8777C93.4272 41.7064 93.4542 41.5381 93.5113 41.3909C93.5804 41.2376 93.6556 41.0933 93.7758 40.9461C93.896 40.8018 94.0402 40.6486 94.2115 40.5013C94.3648 40.348 94.5601 40.1767 94.7825 39.9904C94.6623 39.8371 94.5451 39.7079 94.467 39.5817C94.3888 39.4615 94.3137 39.3443 94.2716 39.2481C94.2205 39.1459 94.1935 39.0437 94.1695 38.9506C94.1695 38.8484 94.1424 38.7552 94.1424 38.6621C94.1424 38.4998 94.1935 38.3375 94.2626 38.1842C94.3227 38.022 94.4159 37.8957 94.5361 37.7905C94.6653 37.6703 94.7916 37.5772 94.9538 37.5171C95.1251 37.4479 95.2934 37.4239 95.4737 37.4239C95.6541 37.4239 95.8133 37.4509 95.9606 37.5171C96.1139 37.5682 96.2341 37.6613 96.3603 37.7635C96.4625 37.8837 96.5556 38.0099 96.6248 38.1632C96.6849 38.3255 96.7269 38.4788 96.7269 38.6591L96.7239 38.6621ZM95.3776 39.5937C95.615 39.3984 95.7953 39.2271 95.8885 39.0978C95.9666 38.9776 96.0087 38.8514 96.0087 38.7222C96.0087 38.5509 95.9666 38.4066 95.8644 38.2864C95.7713 38.1572 95.642 38.0911 95.4557 38.0911C95.2694 38.0911 95.1492 38.1602 95.047 38.2864C94.9538 38.4066 94.9027 38.5599 94.9027 38.7222C94.9027 38.8845 94.9538 39.0468 95.056 39.2C95.1492 39.3623 95.2694 39.4885 95.3806 39.5937H95.3776ZM94.9508 42.6711C95.0951 42.6711 95.2243 42.6441 95.3265 42.5689C95.4467 42.5178 95.5489 42.4247 95.6511 42.3315C95.7622 42.2293 95.8464 42.1272 95.9396 42.0069C96.0177 41.8777 96.1109 41.7755 96.186 41.6673L95.2483 40.5344C95.1552 40.6275 95.053 40.7297 94.9238 40.8229C94.8036 40.916 94.7014 41.0182 94.6082 41.1204C94.5061 41.2226 94.4129 41.3428 94.3348 41.46C94.2656 41.5802 94.2416 41.7064 94.2416 41.8597C94.2416 42.0971 94.2927 42.2955 94.4279 42.4487C94.5391 42.593 94.7104 42.6711 94.9478 42.6711H94.9508ZM103.63 37.4269L106.533 43.2662L105.725 43.4194L104.745 41.442H102.455L101.493 43.4194L100.736 43.2662L103.615 37.4269H103.633H103.63ZM102.795 40.7027H104.42L103.603 39.0558L102.795 40.7027ZM109.626 38.8093C109.403 38.5629 109.208 38.4096 109.037 38.3135C108.865 38.2173 108.697 38.1692 108.526 38.1692C108.252 38.1692 108.048 38.2624 107.88 38.4066C107.708 38.5599 107.633 38.7823 107.633 39.0558C107.633 39.191 107.66 39.2932 107.711 39.3954C107.771 39.4735 107.864 39.5667 107.958 39.6328C108.06 39.7109 108.18 39.762 108.333 39.8281C108.478 39.8882 108.622 39.9393 108.802 40.0084C109.016 40.0866 109.193 40.1797 109.382 40.2549C109.553 40.348 109.707 40.4682 109.833 40.5794C109.953 40.7237 110.055 40.8679 110.121 41.0392C110.2 41.2105 110.242 41.4329 110.242 41.6613C110.242 41.9348 110.2 42.1722 110.097 42.3946C110.004 42.59 109.875 42.7883 109.713 42.9326C109.559 43.0949 109.364 43.2151 109.16 43.3082C108.946 43.3864 108.718 43.4194 108.478 43.4194C108.306 43.4194 108.153 43.4104 108.009 43.3864C107.864 43.3593 107.72 43.3082 107.573 43.2241C107.444 43.164 107.29 43.0708 107.146 42.9356C107.002 42.8154 106.849 42.6711 106.686 42.4998L107.29 42.0039C107.42 42.1752 107.564 42.3435 107.759 42.4728C107.94 42.608 108.15 42.6681 108.381 42.6681C108.526 42.6681 108.67 42.6591 108.79 42.617C108.919 42.5749 109.022 42.5148 109.115 42.4457C109.208 42.3676 109.286 42.2654 109.337 42.1302C109.406 42.0009 109.43 41.8477 109.43 41.6613C109.43 41.5592 109.388 41.457 109.31 41.3638C109.232 41.2707 109.139 41.1925 109.022 41.1174C108.91 41.0392 108.79 40.9882 108.673 40.922C108.553 40.8709 108.435 40.8199 108.348 40.7688C108.162 40.6906 107.982 40.5824 107.81 40.4803C107.615 40.3781 107.462 40.2759 107.299 40.1317C107.164 39.9964 107.044 39.8431 106.951 39.6718C106.858 39.4915 106.807 39.2962 106.807 39.0498C106.807 38.8033 106.849 38.5899 106.942 38.3856C107.026 38.1902 107.128 38.0189 107.29 37.8747C107.444 37.7304 107.63 37.6283 107.834 37.5501C108.057 37.472 108.303 37.4299 108.568 37.4299C108.832 37.4299 109.139 37.5081 109.427 37.6433C109.71 37.7725 109.956 37.9919 110.17 38.2654L109.626 38.8123V38.8093ZM113.782 38.8093C113.559 38.5629 113.364 38.4096 113.193 38.3135C113.022 38.2203 112.853 38.1692 112.682 38.1692C112.408 38.1692 112.204 38.2624 112.036 38.4066C111.865 38.5599 111.789 38.7823 111.789 39.0558C111.789 39.191 111.816 39.2932 111.868 39.3954C111.937 39.4735 112.021 39.5667 112.114 39.6328C112.216 39.7109 112.336 39.762 112.481 39.8281C112.634 39.8882 112.796 39.9393 112.958 40.0084C113.172 40.0866 113.349 40.1797 113.538 40.2549C113.71 40.348 113.863 40.4682 113.98 40.5794C114.109 40.7237 114.212 40.8679 114.278 41.0392C114.356 41.2105 114.398 41.4329 114.398 41.6613C114.398 41.9348 114.356 42.1722 114.254 42.3946C114.161 42.59 114.031 42.7883 113.878 42.9326C113.716 43.0949 113.52 43.2151 113.316 43.3082C113.103 43.3864 112.874 43.4194 112.634 43.4194C112.463 43.4194 112.309 43.4104 112.165 43.3864C112.021 43.3593 111.877 43.3082 111.747 43.2241C111.594 43.164 111.45 43.0708 111.306 42.9356C111.161 42.8154 111.008 42.6711 110.864 42.4998L111.453 42.0039C111.582 42.1752 111.726 42.3435 111.922 42.4728C112.102 42.608 112.312 42.6681 112.544 42.6681C112.688 42.6681 112.832 42.6591 112.952 42.617C113.082 42.5749 113.184 42.5148 113.277 42.4457C113.37 42.3676 113.448 42.2654 113.499 42.1302C113.568 42.0009 113.593 41.8477 113.593 41.6613C113.593 41.5592 113.55 41.457 113.472 41.3638C113.394 41.2707 113.301 41.1925 113.184 41.1174C113.073 41.0392 112.952 40.9882 112.835 40.922C112.706 40.8709 112.604 40.8199 112.511 40.7688C112.339 40.6906 112.144 40.5824 111.973 40.4803C111.777 40.3781 111.624 40.2759 111.48 40.1317C111.327 39.9964 111.206 39.8431 111.113 39.6718C111.02 39.4915 110.969 39.2962 110.969 39.0498C110.969 38.8033 111.011 38.5899 111.104 38.3856C111.182 38.1902 111.309 38.0189 111.453 37.8747C111.606 37.7304 111.792 37.6283 112.015 37.5501C112.219 37.472 112.457 37.4299 112.73 37.4299C113.019 37.4299 113.301 37.5081 113.59 37.6433C113.878 37.7725 114.127 37.9919 114.332 38.2654L113.788 38.8123L113.782 38.8093ZM120.961 40.4292C120.961 40.8469 120.883 41.2406 120.715 41.5892C120.571 41.9739 120.348 42.2804 120.075 42.5539C119.801 42.8184 119.486 43.0408 119.137 43.194C118.753 43.3473 118.362 43.4254 117.944 43.4254C117.526 43.4254 117.145 43.3473 116.778 43.194C116.411 43.0408 116.096 42.8184 115.825 42.5449C115.552 42.2804 115.357 41.9559 115.185 41.5892C115.041 41.2226 114.963 40.8319 114.963 40.4292C114.963 40.0265 115.041 39.6178 115.2 39.2511C115.354 38.8754 115.558 38.5599 115.84 38.3044C116.114 38.022 116.42 37.8176 116.778 37.6643C117.154 37.502 117.544 37.4269 117.944 37.4269C118.38 37.4269 118.771 37.505 119.146 37.6643C119.504 37.8176 119.81 38.04 120.084 38.3135C120.366 38.5779 120.571 38.8845 120.724 39.2691C120.886 39.6358 120.961 40.0114 120.961 40.4292ZM117.947 42.6711C118.236 42.6711 118.527 42.62 118.783 42.4998C119.047 42.3706 119.294 42.2173 119.489 42.0039C119.684 41.7996 119.837 41.5592 119.958 41.2887C120.078 41.0152 120.144 40.7267 120.144 40.4262C120.144 40.1256 120.075 39.8371 119.973 39.5637C119.853 39.2902 119.684 39.0528 119.504 38.8484C119.309 38.635 119.068 38.4818 118.798 38.3616C118.524 38.2323 118.254 38.1662 117.947 38.1662C117.665 38.1662 117.394 38.2353 117.13 38.3525C116.865 38.4637 116.637 38.626 116.439 38.8214C116.225 39.0437 116.072 39.2721 115.952 39.5366C115.84 39.8101 115.771 40.1076 115.771 40.4232C115.771 40.7207 115.84 41.0122 115.943 41.2857C116.072 41.5592 116.216 41.7966 116.42 42.0009C116.616 42.2143 116.856 42.3676 117.118 42.4968C117.373 42.617 117.662 42.6681 117.944 42.6681L117.947 42.6711ZM125.298 38.4577C125.154 38.3375 125.001 38.2774 124.838 38.2353C124.685 38.1933 124.514 38.1662 124.345 38.1662C124.048 38.1662 123.774 38.2353 123.528 38.3616C123.282 38.4818 123.059 38.6501 122.864 38.8484C122.668 39.0708 122.524 39.2932 122.422 39.5637C122.32 39.8371 122.26 40.1106 122.26 40.3811C122.26 40.6876 122.32 40.9701 122.422 41.2436C122.524 41.5321 122.668 41.7725 122.864 41.9769C123.044 42.1993 123.254 42.3525 123.504 42.4878C123.75 42.608 124.024 42.6681 124.297 42.6681C124.493 42.6681 124.688 42.6411 124.886 42.5659C125.082 42.5148 125.262 42.4217 125.43 42.3195L125.277 43.2151C125.106 43.2842 124.937 43.3353 124.79 43.3683C124.619 43.4104 124.466 43.4194 124.288 43.4194C123.904 43.4194 123.54 43.3413 123.206 43.188C122.849 43.0347 122.551 42.8124 122.305 42.5479C122.031 42.2744 121.827 41.9679 121.674 41.5832C121.511 41.2346 121.451 40.8409 121.451 40.4232C121.451 40.0475 121.529 39.6809 121.683 39.3142C121.827 38.9656 122.04 38.623 122.305 38.3585C122.551 38.076 122.843 37.8386 123.164 37.6673C123.48 37.496 123.804 37.4209 124.144 37.4209C124.315 37.4209 124.484 37.4389 124.637 37.463C124.808 37.49 124.961 37.5141 125.13 37.5652L125.301 38.4517L125.298 38.4577ZM127.161 43.2932L126.353 43.3713V37.5561L127.161 37.4269V43.2932ZM130.458 37.4269L133.355 43.2662L132.547 43.4194L131.567 41.442H129.277L128.306 43.4194L127.54 43.2662L130.437 37.4269H130.464H130.458ZM129.608 40.7027H131.224L130.416 39.0558L129.608 40.7027ZM136.342 37.5561V38.3135H135.014V43.2932L134.197 43.3954V38.3135H132.724L132.989 37.5561H136.345H136.342ZM140.048 37.5561L140.228 38.3135H137.836V39.9333H139.753V40.6756H137.836V42.5419H140.418L140.18 43.2932H137.013V37.5561H140.054H140.048ZM143.829 38.8093C143.606 38.5629 143.411 38.4096 143.24 38.3135C143.068 38.2203 142.9 38.1692 142.729 38.1692C142.455 38.1692 142.251 38.2624 142.089 38.4066C141.908 38.5599 141.833 38.7823 141.833 39.0558C141.833 39.191 141.866 39.2932 141.911 39.3954C141.971 39.4735 142.064 39.5667 142.158 39.6328C142.26 39.7109 142.38 39.762 142.533 39.8281C142.678 39.8882 142.831 39.9393 143.002 40.0084C143.216 40.0866 143.393 40.1797 143.582 40.2549C143.753 40.348 143.907 40.4682 144.033 40.5794C144.153 40.7237 144.255 40.8679 144.33 41.0392C144.4 41.2105 144.451 41.4329 144.451 41.6613C144.451 41.9348 144.4 42.1722 144.297 42.3946C144.204 42.59 144.075 42.7883 143.913 42.9326C143.759 43.0949 143.564 43.2151 143.36 43.3082C143.146 43.3864 142.918 43.4194 142.678 43.4194C142.506 43.4194 142.353 43.4104 142.209 43.3864C142.064 43.3593 141.92 43.3082 141.791 43.2241C141.647 43.164 141.493 43.0708 141.349 42.9356C141.205 42.8154 141.052 42.6711 140.907 42.4998L141.496 42.0039C141.626 42.1752 141.77 42.3435 141.965 42.4728C142.146 42.608 142.356 42.6681 142.587 42.6681C142.732 42.6681 142.876 42.6591 142.996 42.617C143.125 42.5749 143.228 42.5148 143.321 42.4457C143.414 42.3676 143.492 42.2654 143.543 42.1302C143.612 42.0009 143.636 41.8477 143.636 41.6613C143.636 41.5592 143.594 41.457 143.516 41.3638C143.438 41.2707 143.345 41.1925 143.228 41.1174C143.116 41.0392 142.996 40.9882 142.879 40.922C142.75 40.8709 142.648 40.8199 142.554 40.7688C142.383 40.6906 142.188 40.5824 142.016 40.4803C141.821 40.3781 141.668 40.2759 141.524 40.1317C141.37 39.9964 141.25 39.8431 141.157 39.6718C141.064 39.4915 141.028 39.2962 141.028 39.0498C141.028 38.8033 141.055 38.5899 141.148 38.3856C141.232 38.1902 141.352 38.0189 141.496 37.8747C141.65 37.7304 141.836 37.6283 142.058 37.5501C142.263 37.472 142.509 37.4299 142.774 37.4299C143.056 37.4299 143.345 37.5081 143.633 37.6433C143.916 37.7725 144.171 37.9919 144.376 38.2654L143.832 38.8123L143.829 38.8093Z" fill="white"/>
<path d="M4.29678 24.9099H13.3517C17.3547 24.9099 20.4561 24.0234 22.644 22.2322C24.8498 20.4501 25.9558 17.8145 25.9558 14.3374C25.9558 10.8603 24.8739 8.08643 22.7101 6.44255C20.5553 4.81369 17.0391 3.97823 12.1496 3.97823H4.29678V24.9099ZM4.29678 27.7589V48.4172H1V1.003H12.2848C18.1601 1.003 22.4967 2.08491 25.2976 4.26072C28.1166 6.42752 29.523 9.70928 29.523 14.0729C29.523 17.2435 28.6786 19.9302 27.0106 22.1211C25.3247 24.3029 22.7852 25.8626 19.3712 26.8183L32.2308 48.4142H28.2879L16.0744 27.7559H4.29678V27.7589ZM66.3166 1.003H69.9109L52.1858 48.4172H49.2557L31.6087 1.003H35.1429L47.0588 33.2646C48.865 38.1512 50.0911 41.8086 50.7222 44.2459C51.164 42.626 52.0175 40.0926 53.2948 36.6906L66.3166 1V1.003Z" stroke="white" stroke-width="0.257562" stroke-miterlimit="42.5"/>
<path fill-rule="evenodd" clip-rule="evenodd" d="M167.312 35.9602H63.2182V33.9316H167.312V35.9602Z" fill="white"/>
<path d="M167.312 35.9602H63.2182V33.9316H167.312V35.9602Z" stroke="white" stroke-width="0.257562" stroke-miterlimit="42.5"/>
</svg>
