<svg width="112" height="92" viewBox="0 0 112 92" fill="none" xmlns="http://www.w3.org/2000/svg">
<path d="M42.129 0.474609H4.63892C2.08278 0.474609 0 2.58044 0 5.16487V51.206C0 53.6947 1.98811 55.7049 4.44958 55.7049H8.89916C9.18318 55.7049 9.37252 55.7049 9.56186 55.8006C10.7926 56.1834 11.55 57.5235 11.0766 58.7679C9.46719 63.6496 6.15368 67.6698 0.946719 70.9243C0.47336 71.3072 0 71.9772 0 72.6472V89.3025C0 89.4939 -9.16969e-08 89.6853 0.0946718 89.7811C0.378688 90.9297 1.42008 91.5997 2.55614 91.3126C10.9819 89.2067 19.0291 85.2822 26.0348 80.0176C33.4192 74.5616 39.0048 66.9998 42.129 58.385C45.2532 49.866 46.7679 39.0496 46.7679 25.8403V5.26059C46.7679 2.58044 44.6852 0.474609 42.129 0.474609Z" fill="white"/>
<path d="M107.547 0.474609H69.9626C67.4065 0.474609 65.3237 2.58044 65.3237 5.16487V51.206C65.3237 53.6947 67.3118 55.7049 69.7733 55.7049H74.2228C74.5069 55.7049 74.6962 55.7049 74.8855 55.8006C76.1163 56.1834 76.8736 57.5235 76.4003 58.7679C74.7909 63.6496 71.4774 67.6698 66.2704 70.9243C65.7024 71.3072 65.229 71.9772 65.229 72.743V89.3982C65.229 89.5896 65.229 89.7811 65.3237 89.8768C65.6077 91.0254 66.6491 91.6954 67.7851 91.4083C76.2109 89.3025 84.2581 85.3779 91.2638 80.1134C98.6482 74.6573 104.234 67.0955 107.358 58.4807C110.482 49.866 111.997 39.1454 111.997 25.936V5.35631C112.092 2.58044 110.009 0.474609 107.547 0.474609Z" fill="white"/>
</svg>
