<svg width="91" height="90" viewBox="0 0 91 90" fill="none" xmlns="http://www.w3.org/2000/svg">
<path d="M73.3313 63.5265C71.0593 63.5265 68.7873 63.0022 66.3406 61.7788C65.9911 61.604 65.6416 61.4293 65.1173 61.4293C64.7677 61.4293 64.593 61.4293 64.2434 61.604C61.0977 62.8274 57.9519 63.5265 54.6313 63.5265C42.0482 63.5265 31.3875 54.4386 29.6399 41.8555C29.4651 40.8069 29.4651 39.7583 29.4651 38.535C29.4651 37.4864 29.6399 37.3116 30.6884 37.3116H52.0098C52.5341 37.4864 53.0584 37.4864 53.408 37.4864H53.9323V14.0678C53.9323 12.8444 54.107 12.6697 55.3304 12.6697C67.3892 12.8444 77.5256 21.5827 79.6228 33.6415C79.6228 34.1658 80.1471 34.6901 80.6714 35.2144C86.2639 38.535 89.2349 44.6518 88.1863 50.7686C86.963 57.2349 82.2443 62.1283 75.9527 63.3517C75.2537 63.3517 74.2051 63.5265 73.3313 63.5265ZM31.2127 39.4088C32.0866 47.9723 35.9314 54.0891 42.5725 58.2835C46.4173 60.5554 50.437 61.7788 54.8061 61.7788C57.4276 61.7788 60.2238 61.2545 63.1948 60.3807L64.0687 60.2059L63.3696 59.6816C58.1266 54.0891 57.078 47.9723 60.0491 41.8555C62.8453 36.263 67.3892 33.4668 73.506 33.4668C74.7294 33.4668 76.1275 33.6415 77.5256 33.8163L78.2247 33.9911V33.292C77.7004 25.078 66.5154 14.5921 58.1266 14.5921C57.6023 14.5921 56.9033 14.5921 56.379 14.7669H56.0295V37.3116C56.0295 38.7097 55.8547 38.8845 54.4566 38.8845H33.3099C32.6109 38.7097 32.2613 38.7097 31.737 38.7097H31.2127V39.4088ZM73.506 34.8649C66.1659 34.8649 60.0491 40.9817 60.0491 48.3218C60.2238 55.662 66.3406 61.7788 73.506 61.7788C80.8462 61.7788 86.963 55.662 86.963 48.3218C86.963 40.9817 80.8462 34.8649 73.506 34.8649Z" fill="white"/>
<path d="M25.7951 33.991C24.9212 33.991 24.5717 33.6415 24.5717 32.7676V31.5443C24.7465 31.3695 24.7465 31.02 24.7465 30.8452C24.7465 30.6705 24.7465 30.4957 24.9212 30.1462L25.096 29.4471H20.0278C19.5035 29.4471 18.9792 29.4471 18.6297 29.4471C16.3577 29.4471 14.0858 29.0976 11.639 28.5733C11.4643 28.5733 11.2895 28.5733 11.1147 28.5733C10.7652 28.5733 10.5904 28.5733 10.2409 28.748C10.0662 28.748 9.89138 28.9228 9.71662 28.9228H4.82318C3.42506 28.9228 2.55123 27.6994 2.37646 26.4761V11.621C2.37646 10.0481 3.42506 8.99952 5.17271 8.99952C6.92037 8.99952 8.66803 8.99952 10.4157 9.17428C10.7652 9.17428 10.94 9.17428 11.1147 8.99952H11.2895L11.4643 8.82475C14.0858 7.6014 16.7072 6.37804 19.5035 5.15468C21.7754 4.10608 23.8726 3.58179 25.9698 3.58179C27.8922 3.58179 29.8147 3.93132 31.5623 4.80515C35.0576 6.20327 38.5529 7.42663 42.0483 8.64999C42.3978 8.82475 42.7473 8.82475 43.0968 8.82475C43.4464 8.82475 43.6211 8.82475 43.7959 8.64999C44.6697 8.47522 45.7183 8.47522 46.5922 8.30046C47.466 8.12569 48.5146 8.12569 49.3884 7.95093C49.5632 7.95093 49.7379 7.95093 49.7379 7.95093C50.0875 7.95093 50.6118 7.95093 50.6118 8.99952V32.9424C50.6118 33.8162 50.437 33.991 49.5632 33.991H25.7951ZM26.3193 29.9714C26.3193 30.3209 26.3193 30.4957 26.3193 30.8452C26.3193 31.1947 26.1446 31.3695 26.1446 31.719V32.2433H49.0389V9.34905H48.5146C40.8249 10.0481 34.8829 13.5434 30.1642 20.0098L29.6399 20.8836H33.4847C34.8829 20.8836 36.1062 21.5826 36.9801 22.806C37.6791 23.8546 37.8539 25.2527 37.5043 26.4761C36.8053 28.2237 35.2324 29.4471 33.4847 29.4471H26.6689V29.9714H26.3193ZM12.6876 9.87335C12.1633 10.0481 11.9886 10.5724 11.9886 10.9219V27.3499H12.5129C13.0372 27.3499 13.5615 27.5247 14.0858 27.5247C15.1344 27.6994 16.1829 27.8742 17.2315 27.8742H32.9604C33.31 27.8742 33.8343 27.8742 34.1838 27.6994C35.2324 27.3499 35.9315 26.1265 35.7567 24.9032C35.5819 23.6798 34.5333 22.6312 33.1352 22.6312H26.8436C25.4455 22.6312 24.0474 22.1069 22.9988 21.2331C21.4259 19.835 21.2511 17.7378 22.6493 16.1649C24.0474 14.7668 25.2708 14.0677 26.6689 13.7182C28.7661 13.1939 30.8633 13.0191 33.6595 12.8444C34.009 12.8444 34.3586 12.8444 34.7081 12.6696C36.1062 11.9705 37.3296 11.2715 38.9025 10.3976L40.4754 9.52382L39.4268 8.99952C37.5043 8.30046 35.7567 7.77616 34.009 7.0771C32.2614 6.5528 30.5137 5.85374 28.5913 5.32944C27.5427 4.97991 26.6689 4.80515 25.7951 4.80515C24.9212 4.80515 24.0474 4.97991 23.3483 5.32944C20.0278 6.72757 16.3577 8.30046 12.6876 9.87335ZM5.34748 10.3976C4.12412 10.3976 3.94936 11.2715 3.94936 11.7958V25.777C3.94936 26.8256 4.64842 27.1751 5.17271 27.1751C5.34748 27.1751 5.52225 27.1751 5.69701 27.1751H8.84279C9.54185 27.1751 10.4157 27.0004 10.4157 25.6022V11.7958C10.4157 10.7472 10.0662 10.3976 9.01756 10.3976H5.34748ZM31.2128 14.592C29.1156 14.7668 26.4941 15.1163 24.3969 17.0387C24.0474 17.2135 23.6979 17.7378 23.5231 18.0873C23.1736 19.3107 24.0474 20.1845 25.096 20.3593C25.096 20.3593 25.2708 20.534 25.4455 20.534C25.7951 20.7088 26.3193 20.8836 26.8436 20.8836C27.3679 20.8836 27.8922 20.534 28.2418 20.0098C29.2904 18.7864 30.1642 17.563 31.2128 15.9901L32.4361 14.2425L31.2128 14.592Z" fill="white"/>
<path d="M78.2247 86.0713C77.0013 86.0713 76.1275 85.547 75.778 84.4985V84.3237C75.6032 84.1489 75.2537 83.7994 74.7294 83.7994C74.5546 83.7994 74.5546 83.7994 74.3798 83.7994H73.506C70.3602 84.1489 67.2144 84.4985 64.0687 84.4985C62.4958 84.6732 61.0976 84.6732 59.8743 84.6732C54.9809 84.6732 51.136 83.9742 47.4659 82.4013C44.4949 81.1779 41.6987 79.4303 39.0772 77.8574L25.6202 70.1677C23.8726 69.2938 23.1735 67.3714 23.5231 65.449C23.8726 63.7013 25.4455 62.3032 27.1931 62.3032C28.067 62.3032 28.9408 62.6528 30.1641 63.1771C32.4361 64.4004 34.8828 65.7985 37.1548 67.1967C39.4267 68.5948 41.6987 69.8181 43.9706 71.2163C44.3202 71.7406 44.8445 71.9153 45.5435 72.0901C45.7183 72.0901 45.893 72.2649 46.0678 72.2649L46.7669 72.4396L46.9416 71.7406C47.4659 68.2453 48.8641 67.0219 52.1846 67.0219H58.1266C60.3986 67.0219 62.6705 66.8471 64.9425 66.6724C65.6415 66.6724 66.3406 66.4976 67.0397 66.4976C69.4864 66.4976 72.1079 67.0219 74.3798 67.5462C74.5546 67.5462 74.7294 67.721 75.0789 67.721C75.4284 67.721 76.1275 67.5462 76.477 66.8471C76.8265 66.1481 77.5256 65.9733 78.3994 65.9733H82.419C84.3415 65.9733 85.3901 67.0219 85.3901 68.9443V83.2751C85.3901 85.0227 84.3415 86.0713 82.5938 86.0713H78.2247ZM78.5742 67.5462C77.3508 67.5462 77.0013 67.8957 77.0013 69.1191C76.8265 71.391 76.8266 73.663 76.8266 75.9349V82.9256C76.8266 83.6246 77.0013 84.4985 78.3994 84.4985H81.8948C82.9433 84.4985 83.4676 83.9742 83.4676 82.9256V68.9443C83.4676 67.8957 83.1181 67.5462 82.0695 67.5462H78.5742ZM27.1931 64.0509C26.3193 64.0509 25.6202 64.4004 25.0959 65.0995C24.3969 66.1481 24.5716 67.5462 25.4455 68.42C25.6202 68.5948 25.9698 68.7696 26.4941 69.1191C27.8922 69.8181 29.2903 70.692 30.6884 71.391C34.5333 73.4882 38.5529 75.7602 42.3977 78.0321C47.8155 81.3527 53.2332 82.9256 58.8257 82.9256C59.1752 82.9256 59.35 82.9256 59.6995 82.9256C61.4472 82.9256 63.1948 82.7508 65.1173 82.576C67.0397 82.4013 68.9621 82.2265 70.8845 82.2265C71.5836 82.0517 72.2826 82.0517 72.9817 82.0517C73.6808 82.0517 74.3798 81.877 75.0789 81.877H75.6032L75.2537 69.6434L74.9041 69.4686C74.5546 69.2938 74.3798 69.2938 74.2051 69.2938C74.0303 69.2938 73.8555 69.2938 73.6808 69.1191L73.1565 68.9443C70.8845 68.5948 68.7873 68.2453 66.6901 68.2453C65.9911 68.2453 65.292 68.2453 64.593 68.42C63.0201 68.5948 61.4472 68.7695 59.8743 68.7695H51.4855C50.6117 68.7695 49.9127 69.1191 49.3884 69.6434C48.8641 70.1677 48.6893 71.0415 48.6893 71.9153C48.8641 73.3135 50.0874 74.1873 51.6603 74.1873H62.1462C62.6705 74.1873 63.1948 74.362 63.3696 74.5368C63.3696 74.5368 63.5444 74.7116 63.3696 74.8863C63.3696 75.4106 63.3696 75.7602 62.1462 75.7602H51.3108C50.0874 75.7602 49.0388 75.2359 47.9902 74.362C47.8155 74.1873 47.2912 73.8377 46.7669 73.8377C46.5921 73.8377 46.4173 73.8377 46.2426 73.8377C45.194 73.8377 43.9706 73.4882 42.7473 72.6144L28.9408 64.7499C28.5913 64.5752 28.2417 64.4004 28.2417 64.2256H28.067C27.7174 64.2256 27.5427 64.0509 27.1931 64.0509Z" fill="white"/>
<path d="M73.6808 57.0599C73.3313 57.0599 72.9818 57.0599 72.9818 55.8365V55.487L72.6322 55.3122C71.2341 54.9627 70.0108 54.6132 68.7874 54.2636C68.4379 54.0889 68.0883 53.9141 68.0883 53.7393C68.0883 53.5646 68.0883 53.3898 68.0883 53.215C68.2631 52.6907 68.6126 52.6907 68.7874 52.6907C68.9622 52.6907 69.1369 52.6907 69.3117 52.8655C70.8846 53.3898 72.108 53.7393 73.3313 53.7393C74.0304 53.7393 74.7294 53.5646 75.4285 53.3898L75.778 53.215C76.3023 53.0403 77.0014 52.8655 77.3509 52.516C77.7004 52.3412 78.05 51.9917 78.05 51.4674C78.05 50.9431 77.7004 50.5936 77.1761 50.244L76.6519 50.0693C75.778 49.7197 74.9042 49.3702 73.8556 49.3702C72.2827 49.1954 70.7098 49.0207 69.4865 48.1468C68.4379 47.4478 67.9136 46.574 67.9136 45.5254C67.9136 44.4768 68.4379 43.6029 69.4865 42.9039C70.3603 42.3796 71.2341 42.03 72.4575 41.6805L72.807 41.5058V40.4572C72.807 40.2824 72.9818 39.9329 73.3313 39.9329C73.8556 40.1076 74.2051 40.2824 74.3799 40.4572C74.5547 41.5058 75.2537 41.6805 75.778 41.8553H75.9528C76.8266 42.03 77.5257 42.2048 78.2247 42.5543L78.9238 42.7291C79.2733 42.9039 79.4481 43.0786 79.6229 43.2534C79.6229 43.4282 79.6229 43.6029 79.6229 43.7777C79.4481 43.9525 79.2733 44.302 78.749 44.302C78.5743 44.302 78.3995 44.302 78.2247 44.1272C77.0014 43.6029 75.4285 43.2534 73.6808 43.2534C72.9818 43.2534 72.4575 43.2534 71.7584 43.4282C70.8846 43.6029 69.4865 43.9525 69.4865 45.3506C69.4865 46.7487 70.8846 47.0982 71.7584 47.273C72.4575 47.4478 72.9818 47.4478 73.5061 47.4478C74.0304 47.4478 74.5547 47.4478 75.079 47.6225C76.1276 47.7973 77.1762 48.1468 77.8752 48.6711C78.9238 49.3702 79.4481 50.244 79.4481 51.2926C79.4481 52.3412 78.9238 53.215 78.05 53.9141C77.5257 54.4384 76.8266 54.6132 76.1276 54.9627C75.778 55.1375 75.4285 55.3122 75.079 55.487L74.9042 55.6618V55.8365C74.2051 57.0599 73.8556 57.0599 73.6808 57.0599Z" fill="white"/>
</svg>
