<svg width="90" height="90" viewBox="0 0 90 90" fill="none" xmlns="http://www.w3.org/2000/svg">
<path d="M5.30477 87.7543C3.73188 87.7543 2.50852 86.7057 2.15899 85.1328C1.98423 84.6085 2.15899 83.7347 2.33376 83.3852C4.60571 77.4432 6.87766 71.5011 9.14962 65.7339C9.32438 65.5591 9.32438 65.2096 9.67391 65.2096L12.6449 62.2385L21.2084 53.675C21.558 53.3255 21.9075 52.8012 21.7327 51.7526C20.3346 48.0825 20.3346 44.5872 20.6841 41.2667V40.2181H10.1982C6.1786 40.2181 2.85806 37.5966 2.15899 33.7518C1.28517 29.7321 3.38235 26.2368 7.22719 24.6639C7.40196 24.6639 7.57673 24.4892 7.75149 24.3144L7.92626 24.1397V23.9649C7.92626 23.7901 7.92626 23.4406 7.75149 23.2658C7.75149 23.0911 7.75149 22.9163 7.75149 22.7415C7.05243 16.1004 10.8973 9.98364 16.8393 7.88645C18.4122 7.36216 19.8103 7.01263 21.3832 7.01263C26.1019 7.01263 30.2962 9.45934 32.743 13.479C33.0925 13.8285 33.442 14.3528 34.1411 14.3528C34.3159 14.3528 34.4906 14.3528 34.6654 14.3528C35.3644 14.178 36.0635 14.178 36.7626 14.178C40.2579 14.178 43.5784 15.9257 45.6756 18.8967C46.1999 19.5957 46.5494 19.7705 47.4233 19.7705C48.8214 19.9453 50.2195 20.12 51.6176 20.4696L52.3167 20.6443C52.4915 20.6443 52.6662 20.6443 52.841 20.6443C53.3653 20.6443 53.5401 20.4696 53.8896 20.2948L54.0644 20.12L69.6185 4.56591C71.7157 2.46872 74.5119 1.24536 77.3082 1.24536C79.7549 1.24536 82.2016 2.11919 84.124 3.69208C86.5708 5.78927 87.9689 8.58552 88.1437 11.7313C88.3184 14.7023 87.0951 17.6733 84.9979 19.9453C81.6773 23.4406 78.182 26.9359 74.6867 30.2564C72.939 32.0041 71.1914 33.7518 69.4437 35.4994C68.7447 36.1985 68.5699 36.8975 68.7447 37.7714C68.9194 38.6452 69.0942 39.519 69.269 40.3928C69.4437 41.2667 69.6185 42.3153 69.968 43.1891L70.1428 43.5386H72.7643V45.6358C72.7643 47.2087 73.4633 48.2573 74.8615 48.9564C75.3858 49.1311 75.7353 49.3059 76.2596 49.3059C77.1334 49.3059 78.0072 48.9564 78.7063 48.2573C79.0558 47.9078 79.2306 47.5582 79.5801 47.3835C79.7549 47.2087 79.9297 47.0339 79.9297 46.8592L85.3474 52.2769C84.8231 52.6264 84.2988 52.976 83.9493 53.5003C82.7259 54.7236 82.5512 55.947 83.0754 57.3451C83.7745 58.7432 84.8231 59.4423 86.396 59.4423H88.4932V66.4329H86.396C84.8231 66.4329 83.7745 67.132 83.0754 68.5301C82.5512 69.9282 82.7259 71.1516 83.9493 72.2002C84.4736 72.7245 84.9979 73.2488 85.5222 73.5983L80.2792 78.8413C80.1044 78.6665 79.9297 78.4917 79.9297 78.317C79.5801 77.9674 79.4054 77.6179 79.0558 77.4431C78.3568 76.7441 77.483 76.3946 76.6091 76.3946C76.2596 76.3946 75.7353 76.5693 75.211 76.7441C73.8129 77.2684 73.1138 78.4917 73.1138 80.0646V81.9871H65.7737V79.8899C65.7737 78.317 65.0746 77.2684 63.6765 76.5693C63.1522 76.3946 62.8026 76.2198 62.2784 76.2198C61.4045 76.2198 60.5307 76.5693 59.8316 77.2684C59.3073 77.7927 58.783 78.317 58.2587 78.8413C58.4335 78.8413 58.4335 78.6665 58.2587 78.6665C58.084 78.317 57.7344 78.1422 57.5597 77.7927L56.6858 76.5693L56.5111 77.9674C56.3363 79.8899 55.6373 81.1132 53.8896 81.6375C53.5401 81.6375 53.3653 81.9871 53.1905 82.1618C53.1905 82.1618 53.1905 82.3366 53.0158 82.3366C51.4429 85.6571 48.9962 87.4048 45.5009 87.4048C42.1803 87.4048 39.7336 85.6571 38.1607 82.5114C38.1607 82.5114 37.9859 82.3366 37.9859 82.1618C37.8112 81.9871 37.8112 81.8123 37.6364 81.8123H37.4616C36.0635 81.288 35.1897 80.5889 34.8402 79.5403C34.4906 78.6665 34.8402 77.4432 35.5392 76.3946L35.714 76.2198V76.045C35.5392 75.1712 35.1897 74.2974 35.0149 73.5983L34.3159 71.6759H33.9663C33.6168 71.6759 33.442 72.0254 33.2673 72.2002C33.2673 72.2002 33.2673 72.375 33.0925 72.375L25.228 80.2394C24.8785 80.5889 24.7038 80.7637 24.3542 80.7637C20.1598 82.3366 16.1402 83.9095 11.7711 85.4824L6.87766 87.4048C6.35337 87.7543 5.82907 87.7543 5.30477 87.7543ZM5.30477 80.4142C4.95524 81.1132 4.78048 81.6375 4.60571 82.1618C4.43095 82.6861 4.25618 83.2104 3.90665 83.9095C3.73188 84.6085 3.90665 85.1328 4.25618 85.4824C4.60571 85.8319 4.95524 86.0067 5.47954 86.0067C5.6543 86.0067 5.6543 86.0067 5.82907 86.0067C7.05243 85.6571 8.27579 85.1328 9.49915 84.6085L10.1982 84.259L5.6543 79.7151L5.30477 80.4142ZM39.9084 83.0356C41.1317 85.1328 43.0541 86.0067 45.5009 86.0067C47.7728 86.0067 49.5205 84.9581 50.9186 83.0356L51.4429 82.1618H39.5588L39.9084 83.0356ZM10.0234 68.1806C8.80009 71.1516 7.75149 74.1226 6.7029 77.0936V77.2684C6.7029 77.6179 6.87766 77.7927 7.05243 78.317L10.0234 81.4628L11.4216 82.8609C11.7711 83.2104 12.1206 83.3852 12.4702 83.3852C12.6449 83.3852 12.9945 83.3852 13.1692 83.2104C13.8683 82.8609 14.5673 82.6861 15.2664 82.3366C15.9655 82.1618 16.4898 81.8123 17.1888 81.6375C17.8879 81.4628 18.7617 81.1132 19.4608 80.7637C20.1598 80.4142 20.8589 80.2394 21.7327 79.8899L22.6066 79.5403L21.9075 79.016C18.0627 75.346 14.3926 71.6759 10.7225 68.0058L10.1982 67.4815L10.0234 68.1806ZM38.685 76.5693C37.2869 76.5693 36.413 77.2684 36.413 78.4917C36.413 79.7151 37.2869 80.4142 38.685 80.4142H51.9672C53.3653 80.4142 54.2391 79.7151 54.2391 78.4917C54.2391 77.2684 53.3653 76.5693 51.9672 76.5693H38.685ZM62.2784 74.6469C62.9774 74.6469 63.6765 74.8217 64.3755 75.1712C66.8223 76.045 67.5213 78.1422 67.5213 79.7151V80.2394H71.1914V79.7151C71.3662 77.2684 72.4147 75.8703 74.3372 75.1712C75.0362 74.9964 75.7353 74.8217 76.2596 74.8217C77.483 74.8217 78.7063 75.346 79.9297 76.3946L80.2792 76.7441L82.9007 74.1226L82.5512 73.7731C80.9783 72.0254 80.6287 70.2778 81.5026 68.1806C82.3764 65.7339 84.4736 65.2096 86.0465 65.0348H86.5708V61.19H86.0465C83.5997 61.0152 82.2016 59.9666 81.5026 58.0442C80.8035 56.1218 81.153 54.1993 82.5512 52.4517L82.9007 52.1021L82.5512 51.7526C82.3764 51.5778 82.0269 51.2283 81.8521 51.0536C81.5026 50.5293 80.9783 50.1797 80.454 49.8302L80.1044 49.6554L79.7549 49.8302C78.3568 50.8788 77.3082 51.4031 76.0848 51.4031C75.5605 51.4031 75.0362 51.4031 74.5119 51.2283C72.9391 50.704 71.7157 49.1311 71.1914 47.2087L70.6671 45.1115L70.1428 47.0339C69.6185 48.9564 69.0942 50.8788 68.5699 52.976L68.3951 53.8498H69.0942C75.0362 54.0246 78.3568 58.5685 78.5315 62.7628C78.7063 67.4815 75.3858 71.6759 71.0166 72.375C70.4923 72.5497 69.7933 72.5497 69.269 72.5497C64.8998 72.5497 61.5793 69.5787 60.0064 64.3357L59.6569 63.4619L58.9578 64.161C57.2101 66.0834 55.9868 67.831 55.113 69.9282C55.113 70.103 55.113 70.2778 55.2877 70.4525V70.6273V70.8021V70.9768C55.812 71.6759 55.9868 72.5497 55.812 73.4235C55.812 73.7731 55.812 74.2974 56.1616 74.6469C56.6858 75.1712 57.2101 75.6955 57.7344 76.3946L58.084 76.9189L58.4335 76.5693C59.8316 75.1712 61.055 74.6469 62.2784 74.6469ZM18.9365 72.8992L19.286 73.2488C20.6841 74.8217 22.257 76.3946 23.8299 77.9674L24.1795 78.317L34.8402 67.6563L34.4906 67.3067C33.0925 65.5591 31.6944 63.8114 30.2962 62.2385L29.9467 61.889L18.9365 72.8992ZM38.5102 70.8021C37.1121 70.8021 36.2383 71.5011 36.2383 72.7245C36.2383 73.9478 37.1121 74.6469 38.5102 74.6469H51.9672C53.3653 74.6469 54.2391 73.9478 54.2391 72.7245C54.2391 71.5011 53.3653 70.8021 51.9672 70.8021H38.5102ZM11.5963 65.7339L11.9459 66.0834C12.4702 66.6077 12.9945 67.132 13.5188 67.6563C14.5673 68.7049 15.6159 69.9282 16.6645 70.8021L17.0141 71.1516L27.8495 60.3161L27.5 59.9666C26.2766 58.3937 24.8785 56.8208 23.4804 55.4227L22.6066 54.5489L11.5963 65.7339ZM69.269 55.2479C68.7447 55.2479 68.2204 55.2479 67.5213 55.4227C67.3466 55.5975 67.1718 55.5975 66.997 55.5975C66.6475 55.7722 66.298 55.947 66.1232 56.1217C64.8998 57.3451 63.6765 58.7432 62.4531 60.1414C62.2783 60.3161 62.2784 60.4909 62.2784 60.4909C62.1036 60.8404 61.9288 61.19 61.9288 61.5395C61.4045 64.5105 62.2783 66.9572 64.7251 68.5301C66.1232 69.5787 67.6961 70.2778 69.4437 70.2778C70.4923 70.2778 71.7157 70.103 72.7643 69.5787C75.211 68.5301 76.7839 66.0834 76.7839 63.2871C76.7839 58.918 73.4633 55.2479 69.269 55.2479ZM40.0831 53.8498C38.8598 53.8498 37.9859 54.7236 37.9859 55.7722C37.9859 56.8208 38.8598 57.6946 40.0831 57.6946H42.1803C44.9766 57.6946 46.3747 59.0928 46.3747 61.889C46.1999 64.161 46.1999 66.2582 46.1999 68.5301V69.0544H52.6662C53.5401 69.0544 53.7148 68.7049 54.0644 68.1806C55.113 66.4329 56.1616 64.6853 57.3849 63.4619C58.783 61.7142 60.3559 60.3161 61.9288 58.7432C62.4531 58.2189 62.9774 57.6946 63.5017 57.1703C66.8223 53.675 68.5699 49.8302 68.7447 45.6358C69.0942 34.4508 61.5793 24.6639 50.9186 22.2172C50.0448 22.0425 49.1709 21.8677 48.4719 21.6929L47.7728 21.5182V22.2172C47.7728 22.9163 47.7728 23.6154 47.9476 24.3144C47.9476 25.0135 47.9476 25.5378 47.9476 26.2368V26.7611H48.8214C52.1419 27.1107 54.7634 29.7321 54.9382 32.8779C55.113 36.3732 52.841 39.1695 49.5205 39.6938C47.9476 39.8686 46.3747 39.8686 44.8018 39.8686H40.7822V44.0629C40.7822 46.1601 41.656 46.5096 43.2289 46.5096H53.8896C55.4625 46.5096 56.8606 47.5582 57.5597 49.1311C57.9092 50.1797 57.7344 51.4031 57.0354 52.2769C56.3363 53.1507 55.2877 53.8498 54.0644 53.8498H40.0831ZM22.7813 40.2181C21.558 46.6844 22.9561 51.9274 26.8009 56.1217C27.8495 57.3451 29.0729 58.5685 30.2962 59.7918C32.9177 62.2385 35.5392 65.0348 37.1121 68.7049L37.2869 69.0544H44.4523V61.3647C44.4523 59.7918 43.0541 59.6171 42.7046 59.4423H42.5298C42.1803 59.4423 42.0055 59.4423 41.656 59.4423C41.3065 59.4423 40.9569 59.4423 40.7822 59.4423C40.4327 59.4423 40.2579 59.4423 39.9084 59.4423C39.0345 59.2675 38.1607 58.918 37.4616 58.5685C36.413 57.6946 35.8887 56.1218 36.413 54.5489C36.9373 52.976 38.1607 52.1021 39.9084 52.1021H53.8896C55.113 52.1021 55.9868 51.2283 55.9868 50.1797C55.9868 49.1311 55.113 48.2573 53.8896 48.2573H43.4037C40.6074 48.2573 39.0345 46.6844 39.0345 43.8882V39.8686H22.9561L22.7813 40.2181ZM10.0234 25.7125C9.84868 25.7125 9.49915 25.7125 9.32438 25.7125C6.1786 26.0621 3.73188 28.8583 3.90665 32.1789C4.08141 35.4994 6.87766 38.1209 10.373 38.1209H48.6466C49.87 37.9461 51.0934 37.4218 51.7924 36.548C52.6662 35.6742 53.0158 34.4508 52.841 33.2275C52.6662 30.606 50.5691 28.6836 48.1223 28.6836C45.8504 28.6836 43.928 30.2564 43.4037 32.8779H41.656C42.0055 30.606 42.8794 29.0331 44.627 27.8097C45.1513 27.635 45.5009 26.9359 45.5009 26.4116C46.3747 21.8677 43.4037 17.3238 38.8598 16.2752C38.1607 16.1004 37.4616 16.1004 36.7626 16.1004C32.743 16.1004 29.2477 18.7219 28.1991 22.7415C28.0243 23.0911 28.0243 23.6154 28.0243 23.9649V24.3144L28.3738 24.4892C30.6458 25.5378 32.0439 27.1107 32.0439 28.8583H30.2962C29.772 27.1107 28.7234 26.0621 27.3252 26.0621C26.8009 26.0621 25.7523 26.2368 25.228 26.7611C24.7038 27.1107 24.3542 27.8097 24.0047 28.5088C24.0047 28.6836 23.8299 28.6836 23.8299 28.8583L21.9075 28.6836C21.9075 26.9359 23.3056 25.1882 25.0533 24.4892C25.7523 24.3144 26.1019 23.9649 26.2766 23.0911C26.8009 20.2948 28.1991 17.8481 30.6458 16.2752C30.6458 15.9257 30.8205 15.7509 30.9953 15.7509C31.1701 15.5761 31.3448 15.5761 31.3448 15.4014L31.6944 15.0518L31.5196 14.7023C29.4224 11.207 25.4028 8.76028 21.2084 8.76028C19.8103 8.76028 18.587 8.93505 17.1888 9.45934C11.7711 11.3818 8.45055 17.3238 9.67391 22.7415C9.84868 23.4406 10.1982 23.7901 11.072 23.7901C13.1692 24.1397 14.7421 25.0135 16.1402 26.5864C17.1888 27.9845 17.8879 29.5574 17.8879 31.1303H16.315C16.315 31.1303 16.315 31.1303 16.315 30.9555C16.315 30.7807 16.315 30.606 16.315 30.606C15.4412 27.8097 12.8197 25.7125 10.0234 25.7125ZM63.6765 27.9845L63.8512 28.334C64.5503 29.3826 65.0746 30.2564 65.7737 31.305C66.4727 32.1789 66.997 33.2275 67.6961 34.1013L68.0456 34.6256L68.5699 34.1013C71.0166 31.4798 73.4633 29.0331 75.9101 26.7611L76.2596 26.4116L75.9101 26.0621C74.3372 24.4892 72.5895 22.7415 71.0166 21.3434L70.6671 20.9939L63.6765 27.9845ZM55.4625 21.8677L55.9868 22.2172C57.9092 23.4406 59.8316 24.6639 61.7541 26.0621L62.1036 26.4116L69.0942 19.421L68.7447 19.0714C67.1718 17.3238 65.5989 15.7509 63.8512 14.178L63.5017 13.8285L55.4625 21.8677ZM67.5213 9.98364C66.8223 10.5079 66.1232 11.207 65.4241 12.0808L65.2494 12.2556L77.8325 24.8387L78.182 24.3144C78.5315 23.7901 79.0558 23.4406 79.4054 22.9163C79.5801 22.7415 79.7549 22.5668 79.9297 22.392L80.2792 22.0425L67.6961 9.45934L67.5213 9.98364ZM77.8325 3.16778C77.3082 3.16778 76.9587 3.16778 76.4344 3.34255C73.1138 3.69208 71.3662 5.78927 69.7933 7.53692L69.4437 7.88645L82.2016 20.6443L82.5512 20.2948C83.2502 19.7705 83.9493 19.0715 84.8231 18.0229C87.2698 15.0518 87.6194 10.8575 85.6969 7.71169C84.124 4.91544 80.9783 3.16778 77.8325 3.16778Z" fill="white"/>
<path d="M65.0746 62.7627C65.0746 65.2095 66.9971 67.1319 69.269 67.1319C71.541 67.1319 73.4634 65.2095 73.4634 62.9375C73.4634 60.4908 71.541 58.5684 69.269 58.5684C66.9971 58.5684 65.0746 60.4908 65.0746 62.7627ZM69.269 61.5394C69.9681 61.5394 70.6671 62.0637 70.6671 62.9375C70.6671 63.6366 69.9681 64.3356 69.269 64.3356C68.57 64.3356 67.8709 63.8113 67.8709 62.9375C67.8709 62.2384 68.57 61.5394 69.269 61.5394Z" fill="white"/>
</svg>
