<svg width="90" height="90" viewBox="0 0 90 90" fill="none" xmlns="http://www.w3.org/2000/svg">
<path d="M2.68405 85.328C2.15976 85.328 1.81022 85.1532 1.46069 84.8037L1.98499 68.3757C2.33452 67.8514 2.68405 67.8514 3.20835 67.8514H8.97561C10.5485 67.8514 11.9466 67.3271 12.9952 66.1037C15.2672 63.657 18.2382 62.4337 21.9083 62.4337C24.7045 62.4337 26.8017 61.5598 28.3746 59.6374L30.1222 57.8898C30.297 57.715 30.4718 57.715 30.6465 57.715C30.8213 57.715 30.9961 57.715 31.1708 57.8898C31.3456 58.0645 31.5204 58.2393 31.5204 58.4141C31.5204 58.5888 31.5204 58.7636 31.3456 58.7636C30.8213 59.2879 30.297 59.8122 29.7727 60.3365C28.8989 61.0355 28.1998 61.9094 27.326 62.6084C26.2774 63.4823 24.7045 64.0066 23.3064 64.0066C23.1316 64.0066 22.9569 64.0066 22.6073 64.0066C22.2578 64.0066 22.083 64.0066 21.9083 64.0066C18.7625 64.0066 16.141 65.2299 14.0438 67.5019C12.8205 68.7252 11.2476 69.4243 9.32514 69.4243H3.55788V83.7551H57.91C60.0072 83.7551 61.58 83.056 62.8034 81.6579L72.765 71.6962C72.765 71.6962 72.9398 71.5215 73.1146 71.5215C73.2893 71.3467 73.4641 71.3467 73.4641 71.1719L73.8136 70.8224L73.4641 70.4729C72.4155 69.0748 70.8426 68.3757 69.2697 68.3757C67.8716 68.3757 66.6483 68.9 65.5997 69.9486L59.3081 76.2401C58.4343 77.114 57.5604 77.4635 56.1623 77.4635H41.6568C38.3362 77.4635 36.4138 75.5411 36.239 72.0458C36.0643 68.5505 37.2876 65.5794 40.2587 62.7832C42.7054 60.5112 43.0549 57.1907 40.9577 54.5692C40.4334 54.0449 40.0839 53.5206 39.5596 53.1711C39.2101 52.8216 38.8605 52.6468 38.511 52.2973L38.1615 51.9477L37.8119 52.2973C37.1129 52.9963 36.239 53.8702 35.54 54.744C35.3652 54.9188 35.0157 55.0935 34.8409 55.0935C34.6662 55.0935 34.4914 54.9188 34.1419 54.744C33.9671 54.5692 33.6176 54.2197 34.4914 53.3459L37.6372 50.2001C37.9867 49.8505 38.1615 49.6758 38.3362 49.6758C38.511 49.6758 38.6858 49.8505 39.0353 50.2001C39.3848 50.5496 39.5596 50.7244 39.9091 51.0739C40.6082 51.5982 41.1325 52.2973 41.8315 52.9963C44.453 55.7926 44.453 60.1617 41.8315 63.1327C41.482 63.657 41.1325 64.0066 40.6082 64.3561C40.4334 64.5309 40.0839 64.8804 39.9091 65.0552C37.4624 67.5019 37.4624 70.4729 37.8119 72.9196C37.9867 74.4925 39.3848 75.7159 41.1325 75.7159C41.482 75.7159 42.0063 75.7159 42.3558 75.7159C42.7054 75.7159 43.2297 75.7159 43.5792 75.7159C43.9287 75.7159 44.453 75.7159 44.8026 75.7159C45.6764 75.7159 46.5502 75.0168 46.8997 74.6673C48.8222 72.9196 50.7446 70.9972 52.4922 69.0748C54.0651 67.5019 55.8128 66.628 57.5604 66.628C59.3081 66.628 60.881 67.3271 62.4539 68.9C62.4539 68.9 62.8034 69.2495 63.1529 69.2495H63.5025L63.6772 69.0748C63.6772 69.0748 63.852 69.0748 63.852 68.9C64.0268 68.7252 64.2015 68.5505 64.3763 68.2009C65.5997 66.9776 67.1725 66.4533 68.9202 66.4533C70.6679 66.4533 72.2408 67.1523 73.4641 68.2009C73.8136 68.3757 73.9884 68.7252 74.3379 69.0748C74.5127 69.2495 74.6875 69.4243 74.8622 69.5991C75.2118 69.9486 75.3865 70.1234 75.3865 70.2981C75.3865 70.4729 75.2118 70.6477 74.8622 70.9972L63.1529 83.2308C61.7548 84.6289 60.0072 85.328 57.91 85.328H2.68405ZM58.0847 68.3757C56.6866 68.3757 55.2885 69.0748 54.2399 70.1234L50.9193 73.4439C50.3951 73.7934 49.8708 74.3177 49.1717 75.0168L48.2979 75.8906H56.8614C57.0361 75.8906 57.2109 75.8906 57.3857 75.7159H57.5604L57.7352 75.5411C58.4343 74.842 59.1333 73.9682 59.8324 73.2691C60.5315 72.5701 61.4053 71.6962 62.1043 70.9972L62.4539 70.6477L62.1043 70.2981C60.881 69.0748 59.4829 68.3757 58.0847 68.3757Z" fill="white"/>
<path d="M56.3371 56.317C56.3371 56.317 56.1623 56.1422 55.9875 56.1422C55.8128 55.9674 55.638 55.9674 55.2885 55.7927L55.1137 55.6179C53.5408 54.5693 53.0165 53.1712 53.3661 51.7731V50.5497H50.7446C50.0455 50.5497 49.696 50.2002 49.696 49.5011V46.8796H47.0745C46.3754 46.8796 46.0259 46.5301 46.0259 45.831V43.0348H43.5792C42.8801 43.0348 42.3558 42.86 42.0063 42.3357C40.9577 40.7628 39.5596 40.2385 37.4624 40.2385C37.2876 40.2385 37.1129 40.2385 36.9381 40.2385C32.7437 40.2385 29.4232 38.1413 27.5008 34.4713C25.4036 30.6264 25.5783 26.7816 28.0251 22.762C28.0251 22.762 28.1998 22.5872 28.1998 22.4124L28.7241 21.8881L28.1998 21.3638C28.0251 21.1891 27.8503 21.0143 27.5008 20.8395C27.326 20.6648 26.9765 20.3152 26.8017 20.1405L26.4522 19.9657L25.2288 21.1891C24.0054 22.2377 22.4326 22.9367 20.8597 22.9367C19.2868 22.9367 17.7139 22.4124 16.4905 21.1891L14.9176 19.6162C14.3933 19.0919 14.3933 18.7424 14.7429 18.2181C15.7915 16.9947 16.8401 15.9461 18.0634 14.8975C18.5877 14.3732 19.2868 13.6742 19.8111 13.1499C19.9858 12.9751 20.1606 12.9751 20.3354 12.9751C20.5101 12.9751 20.6849 12.9751 20.8597 13.1499C21.0344 13.3246 21.0344 13.4994 21.0344 13.6742C21.0344 13.8489 20.8597 14.1985 20.6849 14.3732L16.4905 18.7424L16.8401 19.0919C18.0634 20.49 19.4615 21.1891 21.0344 21.1891C22.4326 21.1891 23.6559 20.49 24.7045 19.4414C26.8017 17.519 28.8989 15.4218 30.9961 13.3246C31.8699 12.4508 32.7437 12.1013 33.9671 12.1013H48.4726C51.7932 12.1013 53.7156 14.0237 53.8904 17.519C54.0651 21.0143 52.8418 23.9853 49.8707 26.7816C47.424 29.0535 47.0745 32.3741 49.1717 34.9956C49.5212 35.5199 50.0455 35.8694 50.395 36.2189C50.7446 36.5684 51.0941 36.918 51.4436 37.2675L51.7932 37.7918L61.0557 28.5292C63.1529 26.432 65.2501 25.5582 67.8716 25.5582C68.0464 25.5582 68.3959 25.5582 68.3959 25.5582C71.7164 25.5582 74.5127 24.5096 76.4351 22.2377C77.6585 20.8395 79.0566 20.3152 80.6295 20.3152C80.8042 20.3152 80.979 20.3152 81.1538 20.3152H86.5715V5.80971H32.2194C30.297 5.80971 28.8989 6.334 27.6755 7.73213L25.5783 9.82931C25.2288 10.1788 25.054 10.1788 24.8793 10.1788C24.7045 10.1788 24.5297 10.0041 24.1802 9.82931C24.1802 9.82931 23.6559 9.30502 24.355 8.78072C25.2288 7.90689 26.1026 7.03307 26.8017 6.15924C28.0251 4.93588 29.7727 4.23682 32.0447 4.23682H86.7463C88.1444 4.23682 88.1444 4.23682 88.1444 5.63494V20.3152C88.1444 21.3638 87.9696 21.5386 86.921 21.5386H81.1538C79.5809 21.5386 78.1828 22.0629 77.1342 23.2863C74.8622 25.733 71.8912 26.9563 68.2211 26.9563C65.5996 26.9563 63.3277 27.8302 61.58 29.7526L53.8904 37.4423L54.2399 37.7918C55.1137 38.6656 55.8128 39.3647 56.6866 40.0638C57.2109 40.5881 57.2109 40.9376 56.6866 41.4619C56.5118 41.6366 56.3371 41.6366 56.3371 41.6366C56.1623 41.6366 55.8128 41.4619 55.4632 41.2871L53.0165 38.8404L52.667 39.1899C52.3175 39.5395 51.9679 39.7142 51.7932 39.7142C51.6184 39.7142 51.2689 39.5395 50.9193 39.1899L48.2979 36.5684C46.2007 34.1217 45.6764 31.5002 46.8997 28.3545C47.0745 27.6554 47.0745 27.1311 47.0745 26.7816C46.0259 22.4124 42.0063 19.2667 37.6372 19.2667C37.1129 19.2667 36.7633 19.2667 36.239 19.4414C31.1708 20.1405 27.5008 24.5096 27.6755 29.4031C27.8503 34.8208 32.2194 39.0152 37.4624 39.0152C37.8119 39.0152 38.3362 39.0152 38.6858 39.0152C38.8605 39.0152 39.0353 39.0152 39.21 39.0152C40.2586 39.0152 40.9577 39.3647 41.6568 40.0638C42.5306 41.1124 43.5792 41.6366 44.8025 41.6366C44.9773 41.6366 45.1521 41.6366 45.3268 41.6366C45.6764 41.6366 46.0259 41.6366 46.3754 41.6366C47.0745 41.6366 47.0745 41.8114 47.0745 41.8114C47.2493 42.1609 47.2493 42.6852 47.2493 43.5591V43.7338V43.9086C47.424 44.0834 47.424 44.4329 47.424 44.9572V45.4815H49.8707C50.9193 45.4815 51.0941 45.6563 51.0941 46.7049V49.1516H53.8904C54.5894 49.1516 54.7642 49.3263 54.9389 50.2002V52.1226C54.9389 54.045 55.8128 54.9188 57.7352 54.9188H62.8034V48.802C62.8034 48.4525 62.4539 48.103 62.2791 47.9282L60.3567 46.0058C60.1819 45.831 60.1819 45.6563 60.1819 45.4815C60.1819 45.3067 60.1819 45.132 60.1819 45.132C60.3567 44.9572 60.5314 44.9572 60.7062 44.9572C60.881 44.9572 61.2305 45.132 61.4053 45.3067L64.0268 47.9282C64.0268 48.103 64.2015 48.4525 64.2015 48.6273V55.9674C64.2015 56.4917 63.852 56.8413 63.3277 56.8413H56.3371V56.317ZM47.9483 13.8489C47.424 13.8489 46.8997 13.8489 46.3754 13.8489C45.8511 13.8489 45.3268 13.8489 44.8025 13.8489C44.453 13.8489 43.9287 14.0237 43.754 14.3732C43.2297 14.8975 42.7054 15.4218 42.1811 15.9461C41.6568 16.4704 41.3072 16.9947 40.7829 17.519L40.0839 18.2181L40.9577 18.3928C44.2783 19.4414 46.5502 21.5386 48.1231 25.2087L48.2979 25.5582H48.6474C48.8222 25.5582 48.9969 25.3834 49.1717 25.3834L49.3464 25.2087C51.7932 23.2863 52.8418 20.49 52.3175 16.6452C52.1427 15.0723 50.9193 14.0237 49.5212 13.6742C48.9969 13.8489 48.4726 13.8489 47.9483 13.8489ZM33.9671 13.6742C33.4428 13.6742 32.9185 14.0237 32.7437 14.1985C31.3456 15.5966 29.7727 17.1695 28.3746 18.7424L28.0251 19.0919L28.3746 19.4414C28.3746 19.4414 28.3746 19.6162 28.5493 19.6162C28.7241 19.791 29.0736 20.3152 29.5979 20.49L29.7727 20.6648L30.1222 20.49C30.4718 20.3152 30.8213 19.9657 30.9961 19.791C32.569 18.5676 34.4914 17.8685 36.7633 17.6938C37.6372 17.6938 38.511 17.3442 39.3848 16.4704C39.7343 15.9461 40.0839 15.5966 40.6082 15.247C40.9577 15.0723 41.1325 14.7227 41.482 14.3732L42.3558 13.4994H33.9671V13.6742Z" fill="white"/>
<path d="M35.7148 30.6264C33.7924 30.6264 32.2195 29.0535 32.2195 27.1311C32.2195 25.3834 33.7924 23.8105 35.54 23.8105C37.4624 23.8105 39.0353 25.3834 39.0353 27.3059C39.0353 29.0535 37.4624 30.6264 35.7148 30.6264ZM35.54 25.3834C34.4914 25.3834 33.6176 26.2573 33.6176 27.3059C33.6176 28.1797 34.4914 29.0535 35.3653 29.0535C35.54 29.0535 35.54 29.0535 35.7148 29.0535C36.7634 29.0535 37.4624 28.3545 37.4624 27.3059C37.4624 26.2573 36.5886 25.3834 35.54 25.3834Z" fill="white"/>
<path d="M10.5487 79.9101C10.1991 79.9101 9.84961 79.5606 9.84961 79.211C10.0244 78.3372 10.0244 77.4634 10.0244 76.5895V73.9681C10.0244 73.4438 10.1991 73.0942 10.7234 73.0942C11.073 73.0942 11.4225 73.4438 11.4225 73.7933V79.211C11.4225 79.5606 11.4225 79.9101 10.5487 79.9101Z" fill="white"/>
<path d="M79.581 16.2958C78.8819 16.2958 78.7072 15.5968 78.7072 15.2472V10.3538C78.7072 9.82951 78.8819 9.47998 79.4062 9.47998C79.9305 9.47998 80.1053 9.82951 80.1053 10.3538C80.28 11.2276 80.28 11.7519 80.28 12.2762C80.28 12.451 80.28 12.6258 80.28 12.9753V15.422C80.28 15.9463 80.1053 16.2958 79.581 16.2958Z" fill="white"/>
<path d="M39.2101 35.5198C39.0354 35.5198 38.8606 35.3451 38.6858 35.1703C38.5111 34.9955 38.3363 34.8208 38.3363 34.646C38.3363 34.4712 38.5111 34.1217 38.6858 33.9469C39.0354 33.5974 39.5597 33.0731 39.9092 32.7236C40.6083 31.8497 41.3073 31.1507 42.1811 30.4516C42.3559 30.2769 43.055 30.2769 43.2297 30.2769C43.4045 30.2769 43.5793 30.6264 43.754 30.9759C43.754 31.1507 43.5793 31.1507 43.5793 31.3254C43.4045 31.5002 43.4045 31.5002 43.4045 31.675L39.7344 35.3451C39.7344 35.3451 39.3849 35.5198 39.2101 35.5198Z" fill="white"/>
</svg>
