<svg width="90" height="90" viewBox="0 0 90 90" fill="none" xmlns="http://www.w3.org/2000/svg">
<path d="M43.8436 87.7748C43.3193 87.7748 42.9697 87.4253 42.9697 86.901V54.7442H30.9109C30.3866 54.7442 30.0371 54.2199 30.0371 53.6956C30.0371 53.1713 30.3866 52.647 30.9109 52.647H47.5136V52.2974C47.3389 51.2488 47.1641 50.2002 47.3389 49.3264C47.5136 46.3554 49.6108 44.2582 52.5818 43.7339C54.679 43.3844 56.7762 43.0349 58.8734 42.8601C60.9706 42.5106 63.2425 42.161 65.3397 41.8115C65.6892 41.8115 66.3883 41.462 66.5631 40.9377L73.3789 29.9274C74.7771 27.6555 77.2238 26.4321 79.6705 26.4321C82.292 26.4321 84.5639 27.6555 85.7873 29.9274C86.3116 30.976 86.8359 32.0246 86.8359 33.248L87.8845 56.1423C87.8845 57.8899 88.0592 59.6376 88.234 61.3852V61.7348L87.5349 63.6572V63.832C87.5349 64.0067 87.3602 64.0067 87.3602 64.1815C86.4864 67.8516 84.0396 69.9488 80.1948 70.2983L70.7575 71.3469V72.745C70.7575 74.8422 70.7575 77.1141 70.7575 79.2113C70.7575 81.4833 70.5827 83.5805 70.5827 85.8524C70.5827 86.3767 70.4079 86.7262 70.2332 87.0758C70.0584 87.2505 69.8836 87.2505 69.7089 87.2505C69.3593 87.2505 68.835 86.901 68.6603 86.3767V85.5029C68.6603 83.2309 68.6603 80.7842 68.6603 78.3375C68.6603 75.8908 68.835 73.4441 68.835 71.1721C68.835 69.774 69.0098 69.5992 70.2332 69.4245C71.2817 69.2497 72.3303 69.2497 73.3789 69.0749C75.4761 68.7254 77.7481 68.5506 79.8453 68.3759C83.6901 68.0263 85.7873 65.5796 85.6125 61.7348L84.5639 41.1124C84.3892 39.7143 84.3892 38.491 84.3892 37.0928C84.3892 35.6947 84.3892 34.4713 84.2144 33.0732C84.0396 30.6265 82.4667 28.5293 80.5443 28.005C80.02 27.8303 79.6705 27.8303 79.1462 27.8303C77.2238 27.8303 75.4761 28.7041 74.6023 30.4517C73.5537 32.3742 72.3303 34.2966 71.107 36.0442C69.8836 37.9667 68.6603 39.8891 67.6117 41.8115C67.2621 42.5106 66.3883 43.0349 65.5145 43.2096C63.4173 43.5592 61.4949 43.9087 59.3977 44.0835C57.1257 44.433 54.8538 44.7825 52.5818 45.132C50.3099 45.4816 48.737 47.404 48.9118 49.6759C49.0865 51.7731 50.8342 53.346 53.1061 53.346C53.2809 53.346 53.4557 53.346 53.4557 53.346C56.951 52.9965 60.621 52.4722 63.9416 51.9479C64.8154 51.9479 65.6893 51.7731 66.5631 51.5984C67.4369 51.4236 68.3107 51.4236 69.1846 51.2488C70.9322 51.0741 72.1556 50.2002 73.0294 48.8021C74.2528 46.5302 75.6509 44.2582 77.049 42.3358C77.2238 41.9863 77.5733 41.6367 77.7481 41.6367C78.0976 41.6367 78.6219 41.6367 78.9714 41.9863C79.4957 42.3358 79.1462 43.0349 79.1462 43.3844C78.7967 43.9087 78.4471 44.433 78.2724 44.9573C77.7481 45.8311 77.3985 46.5302 76.8742 47.404C75.3014 49.6759 74.6023 52.1227 74.9518 54.7442C75.1266 55.2684 74.9518 55.7927 74.9518 56.1423C74.9518 56.317 74.9518 56.6666 74.9518 56.8413C74.9518 57.8899 74.7771 58.0647 73.7285 58.2395C72.1556 58.4142 70.4079 58.589 68.835 58.7638C66.9126 58.9385 65.165 59.2881 63.0678 59.4628C59.922 59.8124 57.8248 62.0843 57.8248 65.2301V86.5515C57.8248 87.2505 57.3005 87.6001 56.7762 87.6001C56.2519 87.6001 55.7276 87.2505 55.7276 86.5515V83.5805C55.7276 81.658 55.7276 79.7356 55.7276 77.8132C55.7276 73.9684 55.7276 70.1235 55.7276 66.2787C55.5528 61.2105 58.6986 57.7152 63.5921 57.3656C65.864 57.1909 68.3107 56.8413 70.7575 56.6666L71.6313 56.4918C72.3303 56.4918 72.8546 56.1423 72.8546 55.2684V53.1713H72.5051C70.4079 53.5208 68.136 53.8703 66.0388 54.0451C63.7668 54.3946 61.6696 54.7441 59.3977 55.0937C58.5239 55.0937 57.65 55.2684 56.7762 55.4432C55.9024 55.618 55.0286 55.618 54.1547 55.7927C53.8052 55.7927 53.6304 55.7927 53.2809 55.7927C52.4071 55.7927 51.5332 55.618 50.6594 55.0937C49.9604 54.5694 49.0865 54.5694 48.2127 54.5694H45.2417V86.0272C45.2417 86.3767 45.2417 86.7262 45.0669 86.901C44.7174 87.6001 44.1931 87.7748 43.8436 87.7748Z" fill="white"/>
<path d="M19.0269 87.6002C18.5026 87.6002 17.9783 87.4254 17.9783 86.2021V71.8713H17.6287C16.7549 71.8713 15.8811 71.6965 15.0073 71.5218C14.1334 71.347 13.2596 71.1722 12.3858 71.1722C10.8129 70.9975 9.06523 70.8227 7.31757 70.4732C3.29796 69.7741 0.67648 66.4536 1.02601 62.6087L2.5989 41.4621C2.77367 39.7144 2.77367 38.1416 2.94843 36.5687C3.1232 34.821 3.29796 33.2481 3.29796 31.5005C3.64749 28.0052 5.39515 25.7332 8.1914 25.0341C8.7157 24.8594 9.23999 24.8594 9.76429 24.8594C12.0362 24.8594 14.1334 26.0827 15.3568 28.1799C16.4054 29.9276 17.454 31.5005 18.5026 33.2481C19.5512 34.9958 20.5998 36.5687 21.6483 38.3163C21.8231 38.6659 21.9979 39.0154 22.6969 39.0154C22.8717 39.0154 23.2212 39.0154 23.5708 38.6659C25.3184 37.9668 27.0661 37.2677 28.8137 36.5687C30.5614 35.8696 32.4838 35.1705 34.2315 34.4715C35.1053 34.1219 35.8044 33.9472 36.6782 33.9472C39.4744 33.9472 41.9212 35.8696 42.6202 38.8406C43.3193 41.8116 41.7464 44.7826 39.1249 46.006C35.4548 47.5789 32.1343 48.8023 28.9885 50.0256C26.7166 50.8994 24.4446 51.7733 22.1726 52.8219C21.4736 52.9966 20.5998 53.1714 19.9007 53.1714C19.0269 53.1714 18.153 52.9966 17.2792 52.6471L16.7549 52.4723V56.1424H17.454C19.0269 56.3172 20.7745 56.4919 22.3474 56.8415C24.0951 57.0162 25.668 57.191 27.4156 57.5405C31.0857 58.2396 33.5324 61.2106 33.5324 64.8807V86.3768C33.5324 87.2507 33.1829 87.6002 32.4838 87.6002C31.7848 87.6002 31.4352 86.9011 31.4352 86.3768V65.405C31.4352 61.9097 29.5128 59.8125 26.0175 59.2882C24.2698 59.1134 22.5222 58.9387 20.7745 58.5891C19.0269 58.4144 17.2792 58.0648 15.5316 57.8901C14.483 57.7153 14.3082 57.5405 14.3082 56.4919V51.249C14.3082 50.5499 14.1334 49.8508 13.7839 49.3266C12.3858 47.2294 10.9876 44.9574 9.76429 43.035C9.76429 43.035 9.23999 42.1612 9.58952 41.9864C9.93906 41.4621 10.6381 41.2873 10.9876 41.2873C11.1624 41.2873 11.3372 41.6369 11.5119 41.8116C11.6867 41.9864 11.6867 41.9864 11.8615 42.1612C13.0848 44.0836 14.3082 46.006 15.7063 48.6275C16.7549 50.3751 17.9783 51.0742 19.3764 51.0742C20.0755 51.0742 20.7745 50.8994 21.4736 50.7247C24.2698 49.6761 26.8913 48.6275 29.5128 47.5789C32.309 46.5303 34.9305 45.3069 37.7268 44.2584C38.9501 43.7341 39.6492 43.035 40.1735 41.9864C40.523 40.9378 40.523 39.8892 39.9987 39.0154C39.4744 37.4425 37.9015 36.3939 36.1539 36.3939C35.6296 36.3939 35.1053 36.5687 34.4062 36.7434C30.3866 38.3163 26.367 39.8892 22.5222 41.4621C21.9979 41.8116 21.6483 41.8116 21.2988 41.8116C20.9493 41.8116 20.5998 41.6369 20.0755 40.763C18.8521 38.8406 17.8035 37.093 16.5801 35.1705C15.5316 33.2481 14.3082 31.5005 13.2596 29.578C12.5605 28.3547 11.1624 27.6556 9.58952 27.6556C9.23999 27.6556 9.06523 27.6556 8.7157 27.8304C6.79328 28.1799 5.74468 29.578 5.39515 31.5005C5.39515 31.85 5.39515 32.5491 5.39515 33.4229C5.22038 36.5687 4.87085 39.7144 4.69609 42.8602C4.52132 46.006 4.34656 49.1518 3.99703 52.2976C3.82226 55.6181 3.47273 59.2882 3.1232 62.434C2.94843 65.405 4.87085 68.0265 7.6671 68.376C9.58952 68.7255 18.8521 69.9489 18.8521 69.9489C19.7259 70.1237 20.0755 70.2984 20.0755 71.347V86.2021C20.0755 87.2507 19.7259 87.6002 19.0269 87.6002Z" fill="white"/>
<path d="M32.309 25.5582C31.9595 25.5582 31.7847 25.5582 31.4352 25.3834C30.7361 24.8591 30.2119 24.3348 30.2119 23.461V6.15922C30.2119 3.88727 31.7847 2.31437 34.0567 2.31437C37.3772 1.96484 40.523 1.96484 43.6688 1.96484H52.9314C55.5529 1.96484 57.1257 3.53773 57.1257 6.15922V16.6452C57.1257 19.2666 55.5529 20.8395 52.9314 20.8395H39.6492C38.7754 20.8395 37.9015 21.0143 37.2025 21.8881C36.6782 22.4124 35.9791 22.9367 35.4548 23.461C34.9305 23.9853 34.4062 24.5096 33.7072 25.0339C33.1829 25.3834 32.8333 25.5582 32.309 25.5582ZM34.7558 3.88726C33.0081 3.88726 32.4838 4.41156 32.4838 6.15922V18.3928C32.309 19.7909 32.309 21.0143 32.309 22.2376V22.9367L32.8333 22.4124C33.7072 21.7134 34.2315 21.1891 34.9305 20.6648L35.9791 19.7909C36.8529 18.9171 37.9015 18.3928 39.4744 18.3928H52.9314C54.679 18.3928 55.0286 17.6937 55.2033 16.1209V5.98445C55.2033 4.58633 54.8538 3.7125 52.9314 3.7125H34.7558V3.88726Z" fill="white"/>
<path d="M76.0004 20.8396C73.379 20.8396 71.107 19.791 69.3593 18.0433C67.6117 16.2957 66.7379 13.8489 66.7379 11.4022C66.7379 6.33402 70.7575 2.13965 75.8257 2.13965H76.5247C81.4182 2.13965 85.4378 6.33402 85.4378 11.4022C85.4378 16.6452 81.2434 20.8396 76.0004 20.8396ZM76.0004 4.06207C71.9808 4.06207 68.6603 7.38262 68.6603 11.4022C68.6603 15.4218 71.9808 18.7424 76.0004 18.7424C80.1948 18.5676 83.3406 15.2471 83.3406 11.4022C83.3406 7.38262 80.02 4.06207 76.0004 4.06207Z" fill="white"/>
<path d="M12.7353 20.6647C7.49232 20.6647 3.47272 16.4703 3.47272 11.2274C3.47272 5.98441 7.66709 1.79004 12.9101 1.79004C18.153 1.79004 22.3474 5.98441 22.3474 11.2274C21.9979 16.6451 17.9783 20.6647 12.7353 20.6647ZM12.7353 4.06199C8.71568 4.06199 5.39514 7.38254 5.39514 11.4021C5.39514 15.4218 8.71568 18.7423 12.7353 18.7423C16.7549 18.7423 20.0754 15.4218 20.0754 11.4021C20.0754 7.38254 16.7549 4.06199 12.7353 4.06199Z" fill="white"/>
<path d="M37.7268 9.82912C37.3772 9.82912 36.3286 9.82912 36.3286 8.78053C36.3286 8.25623 36.5034 7.73193 37.7268 7.73193H49.6108C49.9604 7.73193 51.009 7.73193 51.009 8.78053C51.009 9.82912 49.9604 9.82912 49.6108 9.82912H37.7268Z" fill="white"/>
<path d="M37.7267 14.8975C36.8529 14.8975 36.5034 14.5479 36.5034 13.8489C36.5034 13.1498 36.8529 12.8003 37.7267 12.8003H43.494C44.3678 12.8003 44.7174 13.1498 44.7174 13.8489C44.7174 14.5479 44.0183 14.8975 43.494 14.8975H37.7267Z" fill="white"/>
</svg>
