<svg width="200" height="101" viewBox="0 0 200 101" fill="none" xmlns="http://www.w3.org/2000/svg">
<g clip-path="url(#clip0_104_826)">
<g clip-path="url(#clip1_104_826)">
<path d="M70.2857 25.9391V32.2248C78.1428 26.7962 85.5714 20.7962 93.4286 15.3677C95.1429 14.2248 96.1429 12.3677 96.1429 10.2248V7.36768L83 16.5105L70.2857 7.79625V14.082L78.8571 19.9391L70.2857 25.9391ZM129.714 14.082V7.9391L117 16.6534L103.857 7.36768V10.2248C103.857 12.3677 104.857 14.082 106.571 15.3677C114.429 20.7962 121.857 26.9391 129.714 32.2248V25.9391L121.143 19.9391L129.714 14.082ZM96.1429 22.2248C88.2857 27.6534 80.8571 33.6534 73 39.082C71.2857 40.2248 70.2857 42.082 70.2857 44.2248V47.082L83.4286 37.9391L96.1429 46.6534V40.3677L87.5714 34.5105L96.1429 28.5105L100 25.7962L103.857 28.5105L112.429 34.5105L103.857 40.3677V46.6534L116.571 37.9391L129.714 47.082V44.2248C129.714 42.082 128.714 40.3677 127 39.082C119.286 33.7962 112 27.7962 104.286 22.5105L104.429 22.6534L100 19.3677L96.1429 22.2248Z" fill="white"/>
<path d="M186.286 68.3674H177.429V75.9388H187.571V77.3674H175.857V58.5103H187.571V59.796H177.429V66.9388H186.286V68.3674ZM155.857 68.2245H160.714C162 68.2245 163.143 67.796 164 67.0817C164.857 66.3674 165.286 65.3674 165.286 64.0817C165.286 62.796 164.857 61.796 164 60.9388C163.143 60.2245 162 59.796 160.429 59.796H155.857V68.2245ZM161.286 69.5103H155.857V77.3674H154.286V58.5103H160.429C162.429 58.5103 164 58.9388 165.143 59.9388C166.286 60.9388 166.857 62.2245 166.857 64.0817C166.857 65.2245 166.571 66.3674 165.857 67.2245C165.143 68.0817 164.143 68.796 163 69.0817L167.714 77.0817V77.3674H166L161.286 69.5103ZM145 58.5103V71.3674C145 72.6531 144.714 73.796 144.143 74.6531C143.571 75.6531 142.857 76.3674 141.857 76.796C140.857 77.3674 139.714 77.5103 138.429 77.5103C136.429 77.5103 134.857 76.9388 133.714 75.9388C132.571 74.796 131.857 73.3674 131.857 71.5103V58.5103H133.429V71.2245C133.429 72.796 133.857 74.0817 134.857 74.9388C135.714 75.796 137 76.2245 138.571 76.2245C140.143 76.2245 141.429 75.796 142.286 74.9388C143.143 74.0817 143.714 72.796 143.714 71.2245V58.5103H145ZM124.143 59.9388H117.714V77.3674H116.143V59.9388H109.714V58.6531H124.286V59.9388H124.143ZM101.714 77.3674H100.143V58.5103H101.714V77.3674ZM90.1429 77.3674H88.5714L77.7143 61.3674V77.3674H76.1429V58.5103H77.7143L88.5714 74.6531V58.5103H90.1429V77.3674ZM56 68.2245H60.8571C62.1429 68.2245 63.2857 67.796 64.1429 67.0817C65 66.3674 65.4286 65.3674 65.4286 64.0817C65.4286 62.796 65 61.796 64.1429 60.9388C63.2857 60.2245 62.1429 59.796 60.5714 59.796H56V68.2245ZM61.4286 69.5103H56V77.3674H54.2857V58.5103H60.4286C62.4286 58.5103 64 58.9388 65.1429 59.9388C66.2857 60.9388 66.8571 62.2245 66.8571 64.0817C66.8571 65.2245 66.5714 66.3674 65.8571 67.2245C65.1429 68.0817 64.1429 68.796 63 69.0817L67.7143 77.0817V77.3674H66L61.4286 69.5103ZM45.1429 58.5103V71.3674C45.1429 72.6531 44.8571 73.796 44.2857 74.6531C43.7143 75.6531 43 76.3674 42 76.796C41 77.3674 39.8571 77.5103 38.5714 77.5103C36.5714 77.5103 35 76.9388 33.8571 75.9388C32.7143 74.796 32 73.3674 32 71.5103V58.5103H33.5714V71.2245C33.5714 72.796 34 74.0817 35 74.9388C35.8571 75.796 37.1429 76.2245 38.7143 76.2245C40.2857 76.2245 41.5714 75.796 42.4286 74.9388C43.2857 74.0817 43.8571 72.796 43.8571 71.2245V58.5103H45.1429ZM22.7143 68.5103H13.8571V77.3674H12.2857V58.5103H24V59.796H13.8571V67.0817H22.7143V68.5103Z" fill="white"/>
<path d="M141.714 92.939H142.571V86.3676H145V85.6533H139.286V86.3676H141.714V92.939ZM132.571 93.0819C134 93.0819 135 92.2247 135 91.0819C135 89.939 134.286 89.3676 132.571 89.0819C131 88.7962 130.571 88.3676 130.571 87.6533C130.571 86.939 131.143 86.5105 132.143 86.5105C132.857 86.5105 133.571 86.7962 134.286 87.3676L134.714 86.7962C134 86.2247 133.143 85.939 132.143 85.939C130.714 85.939 129.714 86.7962 129.714 87.939C129.714 89.0819 130.429 89.6533 132.143 90.0819C133.714 90.3676 134 90.7962 134 91.5105C134 92.2248 133.286 92.7962 132.429 92.7962C131.429 92.7962 130.714 92.5105 129.857 91.7962L129.286 92.3676C130.429 92.6533 131.429 93.0819 132.571 93.0819ZM124 92.939H124.857V85.6533H124V92.939ZM114.429 92.939H119.429V92.2248H115.286V85.6533H114.429V92.939ZM104.429 90.3676L106.143 86.6533L107.857 90.3676H104.429ZM102.429 92.939H103.286L104.143 91.0819H108.143L109 92.939H109.857L106.571 85.6533H105.714L102.429 92.939ZM90.8571 92.939H91.7143V87.0819L94.4286 90.939L97.1429 87.0819V92.939H98V85.6533H97.1429L94.2857 89.6533L91.5714 85.6533H90.7143V92.939H90.8571ZM84.7143 92.939H85.5714V85.6533H84.7143V92.939ZM73.2857 92.939H74.1429V86.939L78.8571 92.939H79.5714V85.6533H78.7143V91.5105L74.1429 85.6533H73.4286V92.939H73.2857ZM67.2857 92.939H68.1429V85.6533H67.2857V92.939ZM55 92.939H55.8571V87.0819L58.5714 90.939L61.2857 87.0819V92.939H62.1429V85.6533H61.2857L58.5714 89.6533L55.8571 85.6533H55V92.939Z" fill="white"/>
</g>
</g>
<defs>
<clipPath id="clip0_104_826">
<rect width="200" height="100" fill="white" transform="translate(0 0.224609)"/>
</clipPath>
<clipPath id="clip1_104_826">
<rect width="200" height="100" fill="white" transform="translate(0 0.224609)"/>
</clipPath>
</defs>
</svg>
