<svg width="200" height="101" viewBox="0 0 200 101" fill="none" xmlns="http://www.w3.org/2000/svg">
<g clip-path="url(#clip0_104_797)">
<g clip-path="url(#clip1_104_797)">
<path d="M115.143 35.3674L98.4286 27.9388L95.5714 26.6531V30.0817V42.3674H99.8571V33.5103L112.286 39.0817V46.6531H107.857V40.9388L103.714 39.3674V46.6531H87.1429V26.9388L98.5714 15.2245L111.857 23.5103L114 19.5103L99.4286 10.3674L98.1429 9.51025L97 10.6531L83.7143 24.2245L82.8571 24.9388V25.9388V48.9388V51.2245H85H97.4286H112.286H116.571V37.5103V35.9388L115.143 35.3674Z" fill="white"/>
<path d="M9.71429 68.5104C9.71429 63.7961 13.4286 59.939 18.2857 59.939C21.2857 59.939 23 60.7961 24.7143 62.2247L22.4286 64.939C21.1429 63.939 20 63.2247 18.1429 63.2247C15.5714 63.2247 13.4286 65.5104 13.4286 68.3675C13.4286 71.3675 15.5714 73.5104 18.4286 73.5104C19.7143 73.5104 20.8572 73.2247 21.8572 72.5104V70.2247H18.1429V67.0818H25.2857V74.2247C23.5714 75.6533 21.2857 76.7961 18.2857 76.7961C13.1429 76.939 9.71429 73.3675 9.71429 68.5104Z" fill="white"/>
<path d="M31.2857 60.3677H38.8571C41 60.3677 42.5714 60.9391 43.7143 62.082C44.5714 62.9391 45.1428 64.2248 45.1428 65.7963C45.1428 68.3677 43.7143 70.082 41.5714 70.7963L45.5714 76.6534H41.2857L37.7143 71.3677H34.8571V76.6534H31.2857V60.3677ZM38.5714 68.2248C40.2857 68.2248 41.2857 67.2248 41.2857 65.9391C41.2857 64.3677 40.1428 63.6534 38.4286 63.6534H34.8571V68.3677L38.5714 68.2248Z" fill="white"/>
<path d="M56.2857 60.2246H59.5714L66.5714 76.6532H62.8571L61.2857 73.0818H54.2857L52.8571 76.6532H49.1429L56.2857 60.2246ZM60 69.796L57.8571 64.5103L55.7143 69.796H60Z" fill="white"/>
<path d="M73.5714 70.2248L67.2857 60.3677H71.5714L75.5714 66.9391L79.5714 60.3677H83.7143L77.2857 70.2248V76.7962H73.7143L73.5714 70.2248Z" fill="white"/>
<path d="M97.5714 60.3677H101.143V66.7962H107.857V60.3677H111.429V76.7962H107.857V70.2248H101.143V76.7962H97.5714V60.3677Z" fill="white"/>
<path d="M117.143 68.5104C117.143 63.7961 120.857 59.939 125.857 59.939C131 59.939 134.571 63.6533 134.571 68.3675C134.571 73.0818 130.857 76.7961 125.857 76.7961C120.714 76.939 117.143 73.2247 117.143 68.5104ZM130.857 68.5104C130.857 65.6533 128.857 63.3675 125.857 63.3675C122.857 63.3675 120.857 65.6533 120.857 68.5104C120.857 71.3675 122.857 73.6533 125.857 73.6533C128.857 73.6533 130.857 71.3675 130.857 68.5104Z" fill="white"/>
<path d="M140 69.6534V60.3677H143.571V69.6534C143.571 72.3677 144.857 73.6534 147.143 73.6534C149.429 73.6534 150.714 72.3677 150.714 69.7963V60.3677H154.286V69.6534C154.286 74.6534 151.429 77.082 147 77.082C142.714 76.9391 140 74.5105 140 69.6534Z" fill="white"/>
<path d="M159.286 74.3673L161.429 71.7958C162.857 73.0815 164.429 73.7958 166.286 73.7958C167.714 73.7958 168.714 73.2244 168.714 72.2244C168.714 71.3673 168.143 70.7958 165.429 70.0815C162.143 69.2244 160 68.3673 160 65.0815C160 62.0815 162.429 60.0815 165.714 60.0815C168.143 60.0815 170.143 60.7958 171.857 62.2244L170 64.9387C168.571 63.9387 167.143 63.3673 165.714 63.3673C164.286 63.3673 163.571 63.9387 163.571 64.7958C163.571 65.9387 164.286 66.2244 167.143 66.9387C170.429 67.7958 172.429 68.9387 172.429 71.7958C172.429 75.0815 170 76.7958 166.429 76.7958C163.714 76.9387 161.143 76.0815 159.286 74.3673Z" fill="white"/>
<path d="M177.714 60.3677H190.143V63.5105H181.429V66.7962H189.143V69.9391H181.429V73.3677H190.429V76.5105H177.857V60.3677H177.714Z" fill="white"/>
<path d="M51.2857 84.6533H54C54.7143 84.6533 55.4286 84.939 55.7143 85.2248C56 85.5105 56.1429 85.939 56.1429 86.5105C56.1429 87.5105 55.4286 88.0819 54.4286 88.3676L56.2857 90.939H55.4286L53.5714 88.5105H51.8571V90.939H51.1429V84.6533H51.2857ZM53.8571 87.7962C54.8571 87.7962 55.4286 87.3676 55.4286 86.5105C55.4286 85.7962 54.8571 85.2248 53.8571 85.2248H52V87.6533H53.8571V87.7962Z" fill="white"/>
<path d="M61.2857 84.6533H65.7143V85.2248H62V87.3676H65.4286V87.939H62V90.2248H65.7143V90.7962H61.1429L61.2857 84.6533Z" fill="white"/>
<path d="M73 84.6533H73.7143L76.5714 90.7962H75.7143L75 89.2248H71.5714L70.8571 90.7962H70.1429L73 84.6533ZM74.7143 88.5105L73.2857 85.3676L71.8571 88.5105H74.7143Z" fill="white"/>
<path d="M81.2857 84.6533H82V90.2248H85.4286V90.7962H81.2857V84.6533Z" fill="white"/>
<path d="M96.4286 84.6533H100.857V85.2248H97.1429V87.3676H100.571V87.939H97.1429V90.2248H101V90.7962H96.4286V84.6533Z" fill="white"/>
<path d="M105.571 89.939L106 89.3676C106.714 89.939 107.286 90.2248 108.143 90.2248C109 90.2248 109.571 89.7962 109.571 89.2248C109.571 88.6533 109.286 88.3676 108 88.0819C106.571 87.7962 105.857 87.3676 105.857 86.3676C105.857 85.3676 106.714 84.6533 107.857 84.6533C108.714 84.6533 109.429 84.939 110 85.3676L109.571 85.939C109 85.5105 108.429 85.2248 107.714 85.2248C106.857 85.2248 106.429 85.6533 106.429 86.2248C106.429 86.7962 106.714 87.0819 108.143 87.3676C109.571 87.6533 110.143 88.2248 110.143 89.0819C110.143 90.0819 109.286 90.7962 108 90.7962C107.143 90.939 106.286 90.5105 105.571 89.939Z" fill="white"/>
<path d="M116.714 85.3673H114.571V84.7959H119.429V85.3673H117.286V90.9388H116.571L116.714 85.3673Z" fill="white"/>
<path d="M125.857 84.6533H126.571L129.429 90.7962H128.571L127.857 89.2248H124.429L123.714 90.7962H123L125.857 84.6533ZM127.571 88.5105L126.143 85.3676L124.714 88.5105H127.571Z" fill="white"/>
<path d="M135 85.3673H132.857V84.7959H137.714V85.3673H135.714V90.9388H135V85.3673Z" fill="white"/>
<path d="M142.571 84.6533H147V85.2248H143.286V87.3676H146.714V87.939H143.286V90.2248H147.143V90.7962H142.571V84.6533Z" fill="white"/>
</g>
</g>
<defs>
<clipPath id="clip0_104_797">
<rect width="200" height="100" fill="white" transform="translate(0 0.224609)"/>
</clipPath>
<clipPath id="clip1_104_797">
<rect width="200" height="100" fill="white" transform="translate(0 0.224609)"/>
</clipPath>
</defs>
</svg>
