<svg width="200" height="101" viewBox="0 0 200 101" fill="none" xmlns="http://www.w3.org/2000/svg">
<g clip-path="url(#clip0_111_744)">
<g clip-path="url(#clip1_111_744)">
<path d="M111 30.3673V40.653L116 43.653V27.3673L100.714 18.2245L85.4286 27.3673V43.653L90.4286 40.653V30.3673L100.714 24.0816L111 30.3673ZM107.429 40.653V32.5102L100.714 28.5102L94 32.5102V38.5102L100.714 34.5102V38.7959L93.1429 43.3673L90.4286 44.9388L81.8572 50.0816V25.2245L100.714 13.7959L119.571 25.2245V50.0816L109.286 43.7959L99 50.0816V45.7959L107.429 40.653Z" fill="white"/>
<path d="M23 76.5105V86.2248H27V63.3677H23V72.9391H12V63.3677H8V86.2248H12V76.5105H23Z" fill="white"/>
<path d="M51.5714 74.7959C51.5714 75.9388 51.4286 76.9388 51 77.9388C50.5714 78.9388 50.1429 79.7959 49.4286 80.5102C48.7143 81.2245 48 81.7959 47 82.2245C46 82.653 45 82.7959 43.8571 82.7959C42.7143 82.7959 41.7143 82.5102 40.7143 82.0816C39.7143 81.653 39 81.0816 38.2857 80.3673C37.5714 79.653 37 78.7959 36.7143 77.7959C36.2857 76.7959 36.1429 75.7959 36.1429 74.653C36.1429 73.5102 36.2857 72.5102 36.7143 71.5102C37.1429 70.5102 37.5714 69.653 38.2857 68.9388C39 68.2245 39.7143 67.653 40.7143 67.2245C41.7143 66.7959 42.7143 66.653 43.8571 66.653C45 66.653 46 66.9388 47 67.3673C48 67.7959 48.7143 68.3673 49.4286 69.0816C50.1429 69.7959 50.7143 70.653 51 71.653C51.4286 72.653 51.5714 73.653 51.5714 74.7959ZM55.8571 74.653C55.8571 73.0816 55.5714 71.5102 55 70.0816C54.4286 68.653 53.5714 67.3673 52.5714 66.3673C51.5714 65.3673 50.2857 64.5102 48.8571 63.7959C47.4286 63.2245 45.7143 62.7959 44 62.7959C42.2857 62.7959 40.5714 63.0816 39.1429 63.7959C37.7143 64.3673 36.4286 65.2245 35.2857 66.3673C34.2857 67.5102 33.4286 68.653 32.8571 70.0816C32.2857 71.5102 32 73.0816 32 74.653C32 76.2245 32.2857 77.7959 32.8571 79.2245C33.4286 80.653 34.2857 81.9388 35.2857 82.9388C36.2857 83.9388 37.5714 84.7959 39 85.5102C40.4286 86.0816 42.1429 86.5102 43.8571 86.5102C45.5714 86.5102 47.2857 86.2245 48.7143 85.5102C50.1429 84.9388 51.4286 84.0816 52.5714 82.9388C53.5714 81.7959 54.4286 80.653 55 79.2245C55.5714 77.7959 55.8571 76.3673 55.8571 74.653Z" fill="white"/>
<path d="M79.8571 63.2244H75.8571V76.3673C75.8571 78.5101 75.2857 80.0815 74.2857 81.0815C73.2857 82.0815 71.8571 82.653 70 82.653C68.1428 82.653 66.7143 82.0815 65.7143 80.9387C64.7143 79.7958 64.1428 78.2244 64.1428 76.0815V63.0815H60.1428V76.2244C60.1428 77.9387 60.4285 79.3673 60.8571 80.653C61.2857 81.9387 62 82.9387 62.8571 83.7958C63.7143 84.653 64.7143 85.2244 66 85.653C67.1428 86.0815 68.5714 86.2244 70 86.2244C71.4285 86.2244 72.8571 86.0815 74.1428 85.653C75.2857 85.2244 76.4285 84.653 77.2857 83.653C78.1428 82.7958 78.8571 81.653 79.2857 80.3673C79.7143 79.0815 80 77.653 80 75.9387L79.8571 63.2244Z" fill="white"/>
<path d="M88.8572 69.2245C88.8572 68.5102 89.1429 67.7959 89.8572 67.2245C90.5715 66.653 91.4286 66.3673 92.5715 66.3673C93.5715 66.3673 94.7143 66.5102 95.7143 66.9388C96.7143 67.3673 97.7143 67.9388 98.8572 68.653L101 65.653C99.8572 64.653 98.5715 63.9388 97.2857 63.5102C96 63.0816 94.4286 62.7959 92.7143 62.7959C91.5715 62.7959 90.5715 62.9388 89.5715 63.2245C88.5715 63.5102 87.8572 63.9388 87.1429 64.5102C86.4286 65.0816 85.8572 65.7959 85.5715 66.653C85.1429 67.5102 85 68.3673 85 69.3673C85 70.3673 85.1429 71.3673 85.5715 72.0816C85.8572 72.7959 86.4286 73.5102 87 73.9388C87.7143 74.5102 88.4286 74.9388 89.4286 75.2245C90.4286 75.5102 91.4286 75.9388 92.7143 76.2245C93.7143 76.5102 94.7143 76.7959 95.2857 76.9388C96 77.2245 96.4286 77.3673 96.8572 77.653C97.2858 77.9388 97.5715 78.2245 97.5715 78.5102C97.7143 78.7959 97.7143 79.2245 97.7143 79.653C97.7143 80.5102 97.2857 81.2245 96.5715 81.7959C95.8572 82.3673 94.8572 82.5102 93.5715 82.5102C92.1429 82.5102 90.8572 82.2245 89.7143 81.7959C88.5715 81.2245 87.4286 80.5102 86.2858 79.653L83.8572 82.5102C85.2857 83.7959 86.7143 84.653 88.2857 85.2245C89.8572 85.7959 91.5715 86.0816 93.2858 86.0816C94.4286 86.0816 95.5715 85.9388 96.5715 85.653C97.5715 85.3673 98.4286 84.9388 99.1429 84.3673C99.8572 83.7959 100.429 83.0816 100.857 82.2245C101.286 81.3673 101.429 80.3673 101.429 79.3673C101.429 78.3673 101.286 77.5102 101 76.7959C100.714 76.0816 100.286 75.5102 99.5715 74.9388C99 74.3673 98.1429 73.9388 97.2857 73.653C96.4286 73.2245 95.2858 72.9388 94.1429 72.653C93 72.3673 92.1429 72.0816 91.4286 71.9388C90.7143 71.653 90.1429 71.3673 89.7143 71.2245C89.2857 70.9388 89 70.653 88.8572 70.3673C88.8572 70.0816 88.8572 69.7959 88.8572 69.2245Z" fill="white"/>
<path d="M123.286 63.2246H106.429V86.0818H123.571V82.5103H110.429V76.3675H121.857V72.796H110.429V66.9389H123.429V63.2246H123.286Z" fill="white"/>
<path d="M128.286 86.2246H144.286V82.6532H132.286V63.2246H128.286V86.2246Z" fill="white"/>
<path d="M167.143 63.2244H163.143V76.3673C163.143 78.5101 162.571 80.0815 161.571 81.0815C160.571 82.0815 159.143 82.653 157.286 82.653C155.429 82.653 154 82.0815 153 80.9387C152 79.7958 151.429 78.2244 151.429 76.0815V63.0815H147.429V76.2244C147.429 77.9387 147.714 79.3673 148.143 80.653C148.571 81.9387 149.286 82.9387 150.143 83.7958C151 84.653 152 85.2244 153.286 85.653C154.429 86.0815 155.857 86.2244 157.286 86.2244C158.714 86.2244 160.143 86.0815 161.429 85.653C162.571 85.2244 163.714 84.653 164.571 83.653C165.429 82.7958 166.143 81.653 166.571 80.3673C167 79.0815 167.286 77.653 167.286 75.9387V63.2244H167.143Z" fill="white"/>
<path d="M192 86.2248L183.714 74.5105L191.714 63.3677H187.143L181.429 71.5105L175.714 63.3677H171L179 74.6534L170.714 86.3677H175.286L181.286 77.6534L187.286 86.3677H192V86.2248Z" fill="white"/>
</g>
</g>
<defs>
<clipPath id="clip0_111_744">
<rect width="200" height="100" fill="white" transform="translate(0 0.224609)"/>
</clipPath>
<clipPath id="clip1_111_744">
<rect width="200" height="100" fill="white" transform="translate(0 0.224609)"/>
</clipPath>
</defs>
</svg>
