<svg width="200" height="101" viewBox="0 0 200 101" fill="none" xmlns="http://www.w3.org/2000/svg">
<g clip-path="url(#clip0_110_762)">
<g clip-path="url(#clip1_110_762)">
<path d="M100 10.6533C86.1429 10.6533 75 21.3676 75 34.6533C75 42.0819 78.5714 48.7962 84.1429 53.0819V50.7962C79.5714 46.6533 76.8571 40.939 76.8571 34.5105C76.7143 22.2247 87.1429 12.2247 100 12.2247C112.857 12.2247 123.286 22.2247 123.286 34.5105C123.286 37.5105 122.714 40.3676 121.571 43.0819H106.143V31.939L101.857 29.5105C104 28.6533 108.143 27.5105 112.429 29.6533V41.3676H114.143V28.7962L100 20.939L85.8571 28.7962V35.7962H87.5714V29.7962L100 22.939L107.143 26.939C103.714 26.939 101 28.0819 100 28.6533C99.8571 28.6533 94 31.939 94 31.939V37.3676H85.8571V54.3676C89.8571 57.0819 94.7143 58.6533 100 58.6533C109.286 58.6533 117.429 53.7962 121.714 46.5105H119.714C115.571 52.7962 108.286 56.939 100 56.939C95.4286 56.939 91.1429 55.6533 87.5714 53.5105V39.0819H104.286V43.0819H89.2857V44.7962H122.571C124.143 41.6533 125 38.2248 125 34.5105C125 21.3676 113.857 10.6533 100 10.6533ZM104.286 37.3676H95.7143V32.939L100 30.5105L104.286 32.939V37.3676Z" fill="white"/>
<path d="M3.57143 76.9388C4.14286 77.2245 4.71429 77.5102 5.14286 77.7959C5.71429 78.0816 6.28571 78.2245 6.85714 78.3673C7.42857 78.5102 8 78.653 8.71429 78.7959C9.42857 78.9388 10 78.9388 10.8571 78.9388C11.7143 78.9388 12.5714 78.9388 13.1429 78.7959C13.7143 78.653 14.2857 78.5102 14.7143 78.3673C15.1429 78.2245 15.4286 77.9388 15.5714 77.653C15.7143 77.3673 15.8571 77.0816 15.8571 76.7959C15.8571 76.2245 15.5714 75.7959 15.1429 75.5102C14.7143 75.2245 14 75.0816 13.1429 75.0816C12.7143 75.0816 12.2857 75.0816 11.8571 75.2245C11.4286 75.2245 11 75.3673 10.4286 75.3673C10 75.3673 9.57143 75.5102 9 75.5102C8.57143 75.5102 8.14286 75.653 7.71429 75.653C7 75.653 6.42857 75.5102 5.85714 75.3673C5.28571 75.2245 4.71429 74.9388 4.28571 74.653C3.85714 74.3673 3.42857 73.9388 3.14286 73.3673C2.85714 72.7959 2.71429 72.2245 2.71429 71.653C2.71429 71.2245 2.71429 70.7959 2.85714 70.5102C3 70.0816 3.14286 69.7959 3.42857 69.3673C3.71429 68.9388 4 68.653 4.42857 68.3673C4.85714 68.0816 5.28571 67.7959 5.85714 67.5102C6.42857 67.2245 7 67.0816 7.71429 66.9388C8.42857 66.7959 9.28571 66.7959 10.1429 66.7959C10.8571 66.7959 11.4286 66.7959 12.1429 66.9388C12.8571 67.0816 13.4286 67.0816 14.1429 67.2245C14.7143 67.3673 15.4286 67.5102 16 67.653C16.5714 67.7959 17.1429 68.0816 17.5714 68.2245L16.2857 70.653C15.8571 70.5102 15.4286 70.3673 15 70.0816C14.5714 69.9388 14 69.7959 13.4286 69.653C12.8571 69.5102 12.4286 69.5102 11.8571 69.3673C11.2857 69.3673 10.7143 69.2245 10.1429 69.2245C9.28571 69.2245 8.57143 69.2245 8.14286 69.3673C7.57143 69.5102 7.14286 69.653 6.85714 69.7959C6.57143 69.9388 6.28571 70.2245 6.14286 70.3673C6 70.653 6 70.7959 6 71.0816C6 71.5102 6.14286 71.9388 6.57143 72.2245C7 72.5102 7.57143 72.653 8.42857 72.653C8.71429 72.653 9.14286 72.653 9.57143 72.653C10 72.653 10.4286 72.5102 10.8571 72.5102C11.2857 72.5102 11.8571 72.3673 12.2857 72.3673C12.7143 72.3673 13.2857 72.3673 13.7143 72.3673C14.5714 72.3673 15.2857 72.5102 16 72.653C16.7143 72.7959 17.2857 73.0816 17.7143 73.5102C18.1429 73.9388 18.5714 74.3673 18.7143 74.7959C19 75.3673 19 75.9388 19 76.5102C19 77.3673 18.8571 78.0816 18.4286 78.7959C18 79.5102 17.4286 80.0816 16.7143 80.5102C16 80.9388 15.1429 81.3673 14.1429 81.5102C13.1429 81.7959 12 81.7959 10.7143 81.7959C9.85714 81.7959 9 81.7959 8.28571 81.653C7.42857 81.5102 6.71429 81.3673 6 81.2245C5.28571 81.0816 4.57143 80.7959 3.85714 80.5102C3.14286 80.2245 2.57143 79.9388 2 79.653L3.57143 76.9388Z" fill="white"/>
<path d="M22.2857 66.6533H25.2857V81.2248H22.2857V66.6533Z" fill="white"/>
<path d="M29.5714 66.6533H32.5714L38 71.939L43.4286 66.6533H46.4286V81.2248H43.4286V70.6533L38 75.939L32.5714 70.7962V81.3676H29.5714V66.6533Z" fill="white"/>
<path d="M51 66.6533H58.7143C59.8571 66.6533 60.8571 66.7962 61.7143 67.0819C62.5714 67.3676 63.2857 67.6533 63.7143 68.0819C64.2857 68.5105 64.7143 69.0819 65 69.7962C65.2857 70.5105 65.4286 71.2247 65.4286 72.0819C65.4286 72.7962 65.2857 73.6533 65 74.2247C64.7143 74.939 64.2857 75.5105 63.8571 75.939C63.2857 76.3676 62.5714 76.7962 61.8571 77.0819C61 77.3676 60 77.5105 58.8571 77.5105H54V81.3676H51V66.6533ZM58.8571 74.939C59.4286 74.939 59.8571 74.939 60.2857 74.7962C60.7143 74.6533 61 74.5105 61.2857 74.2247C61.5714 73.939 61.8571 73.6533 61.8571 73.3676C62 73.0819 62 72.6533 62 72.2248C62 71.3676 61.7143 70.6533 61.1429 70.2247C60.5714 69.7962 59.7143 69.5105 58.5714 69.5105H53.7143V75.0819H58.8571V74.939Z" fill="white"/>
<path d="M69.1429 66.6533H72.1429V78.7962H80.7143V81.3676H69.1429V66.6533Z" fill="white"/>
<path d="M84.1429 66.6533H96.7143V69.2247H87.1429V72.0819H95.5715V74.5105H87.1429V78.7962H96.8572V81.3676H84.1429V66.6533Z" fill="white"/>
<path d="M107.571 66.6533H110.571V70.5105H119.714V66.6533H122.857V81.2248H119.857V73.0819H110.714V81.3676H107.714V66.6533H107.571Z" fill="white"/>
<path d="M126.571 73.9391C126.571 72.7962 126.714 71.7962 127.143 70.9391C127.571 70.082 128.143 69.2248 128.857 68.5105C129.571 67.7962 130.429 67.3677 131.571 66.9391C132.571 66.5105 133.714 66.3677 135 66.3677C136.286 66.3677 137.429 66.5105 138.429 66.9391C139.429 67.3677 140.429 67.7962 141.143 68.5105C141.857 69.2248 142.429 69.9391 142.857 70.9391C143.286 71.7962 143.429 72.7962 143.429 73.9391C143.429 75.082 143.286 76.082 142.857 76.9391C142.429 77.7962 141.857 78.6534 141.143 79.3677C140.429 80.082 139.571 80.5105 138.429 80.9391C137.429 81.3677 136.286 81.5105 135 81.5105C133.714 81.5105 132.571 81.3677 131.571 80.9391C130.571 80.5105 129.714 80.082 128.857 79.3677C128.143 78.6534 127.571 77.9391 127.143 76.9391C126.857 76.082 126.571 75.082 126.571 73.9391ZM129.571 73.9391C129.571 74.6534 129.714 75.3677 130 75.9391C130.286 76.5105 130.714 77.082 131.143 77.5105C131.571 77.9391 132.143 78.2248 132.857 78.5105C133.571 78.7962 134.286 78.7962 135 78.7962C135.714 78.7962 136.571 78.6534 137.143 78.5105C137.857 78.2248 138.429 77.9391 138.857 77.5105C139.286 77.082 139.714 76.5105 140 75.9391C140.286 75.3677 140.429 74.6534 140.429 73.9391C140.429 73.2248 140.286 72.5105 140 71.9391C139.714 71.3677 139.286 70.7962 138.857 70.3677C138.429 69.9391 137.857 69.6534 137.143 69.3677C136.429 69.082 135.714 69.082 135 69.082C134.286 69.082 133.429 69.2248 132.857 69.3677C132.143 69.6534 131.571 69.9391 131.143 70.3677C130.714 70.7962 130.286 71.2248 130 71.9391C129.714 72.5105 129.571 73.2248 129.571 73.9391Z" fill="white"/>
<path d="M146.714 66.6533H149.714V74.6533C149.714 75.3676 149.857 75.939 150 76.3676C150.143 76.939 150.429 77.3676 150.857 77.6533C151.286 77.939 151.714 78.2247 152.143 78.5105C152.714 78.6533 153.286 78.7962 154 78.7962C154.714 78.7962 155.286 78.6533 155.857 78.5105C156.429 78.3676 156.857 78.0819 157.143 77.6533C157.571 77.3676 157.714 76.7962 158 76.3676C158.143 75.7962 158.286 75.2247 158.286 74.6533V66.6533H161.286V75.0819C161.286 76.0819 161.143 76.939 160.857 77.6533C160.571 78.5105 160 79.0819 159.429 79.6533C158.857 80.2247 158 80.6533 157.143 80.939C156.286 81.2247 155.143 81.3676 154 81.3676C152.857 81.3676 151.857 81.2247 150.857 80.939C150 80.6533 149.143 80.2247 148.571 79.6533C148 79.0819 147.429 78.3676 147.143 77.6533C146.857 76.7962 146.714 75.939 146.714 75.0819V66.6533Z" fill="white"/>
<path d="M166.143 76.9388C166.714 77.2245 167.286 77.5102 167.714 77.7959C168.286 78.0816 168.857 78.2245 169.429 78.3673C170 78.5102 170.571 78.653 171.286 78.7959C172 78.9388 172.571 78.9388 173.429 78.9388C174.286 78.9388 175.143 78.9388 175.714 78.7959C176.286 78.653 176.857 78.5102 177.286 78.3673C177.714 78.2245 178 77.9388 178.143 77.653C178.286 77.3673 178.429 77.0816 178.429 76.7959C178.429 76.2245 178.143 75.7959 177.714 75.5102C177.286 75.2245 176.571 75.0816 175.714 75.0816C175.286 75.0816 174.857 75.0816 174.429 75.2245C174 75.2245 173.571 75.3673 173 75.3673C172.571 75.3673 172.143 75.5102 171.571 75.5102C171.143 75.5102 170.714 75.653 170.286 75.653C169.571 75.653 169 75.5102 168.429 75.3673C167.857 75.2245 167.286 74.9388 166.857 74.653C166.429 74.3673 166 73.9388 165.714 73.3673C165.429 72.7959 165.286 72.2245 165.286 71.653C165.286 71.2245 165.286 70.7959 165.429 70.5102C165.571 70.0816 165.714 69.7959 166 69.3673C166.286 68.9388 166.571 68.653 167 68.3673C167.429 68.0816 167.857 67.7959 168.429 67.5102C169 67.2245 169.571 67.0816 170.286 66.9388C171 66.7959 171.857 66.7959 172.714 66.7959C173.429 66.7959 174 66.7959 174.714 66.9388C175.429 67.0816 176 67.0816 176.714 67.2245C177.286 67.3673 178 67.5102 178.571 67.653C179.143 67.7959 179.714 68.0816 180.143 68.2245L178.857 70.653C178.429 70.5102 178 70.3673 177.571 70.0816C177.143 69.9388 176.571 69.7959 176 69.653C175.429 69.5102 175 69.5102 174.429 69.3673C173.857 69.3673 173.286 69.2245 172.714 69.2245C171.857 69.2245 171.143 69.2245 170.714 69.3673C170.143 69.5102 169.714 69.653 169.429 69.7959C169.143 69.9388 168.857 70.2245 168.714 70.3673C168.571 70.653 168.571 70.7959 168.571 71.0816C168.571 71.5102 168.714 71.9388 169.143 72.2245C169.571 72.5102 170.143 72.653 171 72.653C171.286 72.653 171.714 72.653 172.143 72.653C172.571 72.653 173 72.5102 173.429 72.5102C173.857 72.5102 174.429 72.3673 174.857 72.3673C175.286 72.3673 175.857 72.3673 176.286 72.3673C177.143 72.3673 177.857 72.5102 178.571 72.653C179.286 72.7959 179.857 73.0816 180.286 73.5102C180.714 73.9388 181.143 74.3673 181.286 74.7959C181.571 75.3673 181.571 75.9388 181.571 76.5102C181.571 77.3673 181.429 78.0816 181 78.7959C180.571 79.5102 180 80.0816 179.286 80.5102C178.571 80.9388 177.714 81.3673 176.714 81.5102C175.714 81.7959 174.571 81.7959 173.286 81.7959C172.429 81.7959 171.571 81.7959 170.857 81.653C170 81.5102 169.286 81.3673 168.571 81.2245C167.857 81.0816 167.143 80.7959 166.429 80.5102C165.714 80.2245 165.143 79.9388 164.571 79.653L166.143 76.9388Z" fill="white"/>
<path d="M185.286 66.6533H197.857V69.2247H188.286V72.0819H196.714V74.5105H188.286V78.7962H198V81.3676H185.286V66.6533Z" fill="white"/>
<path d="M54.4286 84.5103H57.1429C57.5714 84.5103 57.8572 84.5103 58.1429 84.6531C58.4286 84.796 58.7143 84.796 58.8572 85.0817C59 85.2245 59.1429 85.5103 59.2857 85.6531C59.4286 85.9388 59.4286 86.2245 59.4286 86.5103C59.4286 86.796 59.4286 87.0817 59.2857 87.2245C59.1429 87.5103 59 87.6531 58.8572 87.796C58.7143 87.9388 58.4286 88.0817 58.1429 88.2245C57.8572 88.3674 57.4286 88.3674 57.1429 88.3674H55.4286V89.796H54.4286V84.5103ZM57.1429 87.5103C57.2857 87.5103 57.5715 87.5103 57.7143 87.3674C57.8572 87.3674 58 87.2245 58.1429 87.2245C58.2857 87.0817 58.2857 87.0817 58.4286 86.9388C58.4286 86.796 58.5714 86.6531 58.5714 86.5103C58.5714 86.2245 58.4286 85.9388 58.2857 85.796C58.1429 85.6531 57.7143 85.5103 57.4286 85.5103H55.7143V87.5103H57.1429Z" fill="white"/>
<path d="M61.2857 84.5103H64C64.4286 84.5103 64.7143 84.5103 65 84.6531C65.2857 84.796 65.5714 84.796 65.7143 85.0817C65.8571 85.2245 66 85.3674 66.1428 85.6531C66.2857 85.9388 66.2857 86.0817 66.2857 86.3674C66.2857 86.5103 66.2857 86.796 66.2857 86.9388C66.2857 87.0817 66.1428 87.2245 66 87.3674C65.8571 87.5103 65.7143 87.6531 65.5714 87.796C65.4286 87.9388 65.2857 87.9388 65 88.0817L66.1428 89.796H64.8571L63.8571 88.3674H62.2857V89.796H61.2857V84.5103ZM64 87.3674C64.1428 87.3674 64.4286 87.3674 64.5714 87.3674C64.7143 87.3674 64.8571 87.2245 65 87.2245C65.1428 87.0817 65.1428 87.0817 65.2857 86.9388C65.2857 86.796 65.4286 86.6531 65.4286 86.5103C65.4286 86.2245 65.2857 85.9388 65.1428 85.796C65 85.6531 64.5714 85.5103 64.2857 85.5103H62.7143V87.3674H64Z" fill="white"/>
<path d="M68.2857 84.5103H72.8571V85.3674H69.4286V86.3674H72.4286V87.3674H69.4286V88.796H72.8571V89.6531H68.2857V84.5103Z" fill="white"/>
<path d="M74.7143 84.5103H75.7143L77.5714 86.3674L79.4286 84.5103H80.4286V89.6531H79.4286V85.9388L77.5714 87.796L75.7143 85.9388V89.6531H74.7143V84.5103Z" fill="white"/>
<path d="M82.7143 84.5103H83.8572V89.6531H82.7143V84.5103Z" fill="white"/>
<path d="M85.7143 84.5103H86.7143V87.3674C86.7143 87.6531 86.7143 87.796 86.8571 87.9388C86.8571 88.0817 87 88.2245 87.1428 88.3674C87.2857 88.5103 87.4286 88.6531 87.5714 88.6531C87.7143 88.6531 88 88.796 88.2857 88.796C88.5714 88.796 88.7143 88.796 89 88.6531C89.1428 88.6531 89.2857 88.5103 89.4285 88.3674C89.5714 88.2245 89.7143 88.0817 89.7143 87.9388C89.7143 87.796 89.8571 87.5103 89.8571 87.3674V84.5103H90.8571V87.5103C90.8571 87.796 90.8571 88.2245 90.7143 88.5103C90.5714 88.796 90.4285 89.0817 90.1428 89.2245C89.8571 89.3674 89.7143 89.5103 89.2857 89.6531C89 89.796 88.5714 89.796 88.1428 89.796C87.7143 89.796 87.4286 89.796 87 89.6531C86.7143 89.5103 86.4286 89.3674 86.1428 89.2245C85.8571 89.0817 85.7143 88.796 85.5714 88.5103C85.7143 88.2245 85.7143 87.9388 85.7143 87.5103V84.5103Z" fill="white"/>
<path d="M92.8571 84.5103H93.8571L95.7143 86.3674L97.5714 84.5103H98.5714V89.6531H97.5714V85.9388L95.7143 87.796L93.8571 85.9388V89.6531H92.8571V84.5103Z" fill="white"/>
<path d="M103.571 87.2245C103.571 86.796 103.714 86.5103 103.857 86.0817C104 85.796 104.143 85.5103 104.429 85.2245C104.714 84.9388 105 84.796 105.429 84.6531C105.714 84.5103 106.143 84.5103 106.571 84.5103C107 84.5103 107.429 84.5103 107.857 84.6531C108.286 84.796 108.571 84.9388 108.857 85.2245C109.143 85.5103 109.286 85.796 109.429 86.0817C109.571 86.3674 109.714 86.796 109.714 87.2245C109.714 87.5103 109.714 87.9388 109.571 88.2245C109.429 88.5103 109.286 88.796 109.143 89.0817L110.143 89.9388H108.571L108.286 89.6531C108 89.796 107.857 89.796 107.571 89.9388C107.286 89.9388 107 90.0817 106.714 90.0817C106.286 90.0817 105.857 90.0817 105.429 89.9388C105 89.796 104.714 89.6531 104.429 89.3674C104.143 89.0817 104 88.796 103.857 88.5103C103.714 87.9388 103.571 87.5103 103.571 87.2245ZM104.714 87.2245C104.714 87.5103 104.714 87.796 104.857 87.9388C105 88.2245 105.143 88.3674 105.286 88.5103C105.429 88.6531 105.714 88.796 105.857 88.796C106.143 88.9388 106.286 88.9388 106.571 88.9388C106.857 88.9388 107.143 88.9388 107.429 88.796L106 87.3674H107.286L108.143 88.2245C108.286 88.0817 108.286 87.9388 108.429 87.796C108.429 87.6531 108.571 87.3674 108.571 87.2245C108.571 86.9388 108.571 86.6531 108.429 86.5103C108.286 86.3674 108.143 86.0817 108 85.9388C107.857 85.796 107.571 85.6531 107.429 85.6531C107.143 85.5103 107 85.5103 106.714 85.5103C106.429 85.5103 106.143 85.5103 106 85.6531C105.714 85.796 105.571 85.796 105.429 85.9388C105.286 86.0817 105.143 86.2245 105 86.5103C104.714 86.6531 104.714 86.9388 104.714 87.2245Z" fill="white"/>
<path d="M111.286 84.5103H112.286V87.3674C112.286 87.6531 112.286 87.796 112.429 87.9388C112.429 88.0817 112.571 88.2245 112.714 88.3674C112.857 88.5103 113 88.6531 113.143 88.6531C113.286 88.6531 113.571 88.796 113.857 88.796C114.143 88.796 114.286 88.796 114.571 88.6531C114.714 88.6531 114.857 88.5103 115 88.3674C115.143 88.2245 115.286 88.0817 115.286 87.9388C115.286 87.796 115.429 87.5103 115.429 87.3674V84.5103H116.429V87.5103C116.429 87.796 116.429 88.2245 116.286 88.5103C116.143 88.796 116 89.0817 115.714 89.2245C115.429 89.3674 115.286 89.5103 114.857 89.6531C114.571 89.796 114.143 89.796 113.714 89.796C113.286 89.796 113 89.796 112.571 89.6531C112.286 89.5103 112 89.3674 111.714 89.2245C111.429 89.0817 111.286 88.796 111.143 88.5103C111 88.2245 111 87.9388 111 87.5103L111.286 84.5103Z" fill="white"/>
<path d="M120.286 84.5103H121.429L124 89.6531H122.857L122.429 88.796H119.429L119 89.6531H117.857L120.286 84.5103ZM122 88.0817L120.857 85.6531L119.714 88.0817H122Z" fill="white"/>
<path d="M125.429 84.5103H126.429V88.796H129.429V89.6531H125.286V84.5103H125.429Z" fill="white"/>
<path d="M131.143 84.5103H132.286V89.6531H131.143V84.5103Z" fill="white"/>
<path d="M135.857 85.5103H133.857V84.5103H138.857V85.3674H136.857V89.6531H135.857V85.5103Z" fill="white"/>
<path d="M142.286 88.5103L140 84.5103H141.143L142.714 87.5103L144.286 84.5103H145.429L143.143 88.3674V89.6531H142.143L142.286 88.5103Z" fill="white"/>
</g>
</g>
<defs>
<clipPath id="clip0_110_762">
<rect width="200" height="100" fill="white" transform="translate(0 0.224609)"/>
</clipPath>
<clipPath id="clip1_110_762">
<rect width="200" height="100" fill="white" transform="translate(0 0.224609)"/>
</clipPath>
</defs>
</svg>
